<?xml version="1.0" standalone="no"?>
<!DOCTYPE svg PUBLIC "-//W3C//DTD SVG 1.1//EN" "http://www.w3.org/Graphics/SVG/1.1/DTD/svg11.dtd" >
<svg xmlns="http://www.w3.org/2000/svg" xmlns:xlink="http://www.w3.org/1999/xlink" version="1.1">
<metadata>
Created by FontForge 20170731 at Thu Feb 11 14:26:12 2021
 By Aleksey,,,
@1996 Museum of Lips and Fonts
</metadata>
<defs>
<font id="Basquiat" horiz-adv-x="1636" >
  <font-face 
    font-family="Basquiat"
    font-weight="500"
    font-stretch="normal"
    units-per-em="2048"
    panose-1="0 0 0 0 0 0 0 0 0 0"
    ascent="1638"
    descent="-410"
    x-height="1438.5"
    cap-height="1520"
    bbox="-162 -752 2402 2108.66"
    underline-thickness="40"
    underline-position="-312"
    unicode-range="U+0020-2122"
  />
<missing-glyph horiz-adv-x="2048" 
 />
    <glyph glyph-name=".notdef" horiz-adv-x="2048" 
 />
    <glyph glyph-name=".null" horiz-adv-x="0" 
 />
    <glyph glyph-name="nonmarkingreturn" horiz-adv-x="682" 
 />
    <glyph glyph-name="space" unicode=" " horiz-adv-x="1589" 
 />
    <glyph glyph-name="exclam" unicode="!" horiz-adv-x="1009" 
d="M387 227q-26 -21 -54.5 -15t-51.5 24t-33 38l-10 76q83 185 171.5 448t144.5 426.5t89 190.5q144 113 127 -140q-2 -31 -8 -85l-2 -19q-10 -78 -60 -206.5t-63 -182.5q-53 -114 -87 -206t-64.5 -162t-98.5 -187zM268 -96q-12 -47 -30 -66.5t-43 -19.5t-61 6q-11 1 -17 2
q-26 6 -41 20t-19.5 37.5t-5 41t2.5 48t3 39.5q35 13 72.5 14.5t70.5 -8.5t52.5 -39.5t15.5 -74.5z" />
    <glyph glyph-name="quotedbl" unicode="&#x22;" horiz-adv-x="931" 
d="M401 1882q49 -13 79.5 -40.5t41 -61.5t14 -75.5t-1 -83t-4 -83t4.5 -76.5q-6 -61 -1.5 -114t-1 -113.5t-28.5 -99.5q-43 -21 -78 11.5t-33 78.5q1 70 -4.5 206.5t-4 246t16.5 204.5zM172 1841q40 -49 57 -103.5t14.5 -101t-3 -101.5t3.5 -105q-10 -134 22 -232
q-18 -34 -57.5 -42.5t-77.5 9.5q-25 93 -30.5 214t0.5 217t-1 214q6 24 29.5 35.5t42.5 -4.5z" />
    <glyph glyph-name="numbersign" unicode="#" horiz-adv-x="1605" 
d="M758 643l22 223q-112 0 -223 6q-13 -101 -37 -235zM958 1260q0 -70 -8 -230l287 -4q16 -23 25 -40.5t13.5 -40.5t-9 -43.5t-45.5 -37.5q-50 -8 -139.5 -2t-143.5 4q-4 -70 -20 -229q13 -2 46 5t65 10t68 -3.5t68 -40.5t52 -96q-202 -17 -318 -23q-26 -205 -61 -364
q-9 -21 -14.5 -21.5t-8.5 12.5t-8.5 25t-14.5 16t-26 -14l-53 33l30 307q-126 -6 -251 -6q-2 -11 -9 -41t-10 -47q-11 -25 -26.5 -76t-33 -91.5t-42.5 -67.5l-78 8l43 317q-41 2 -108.5 -3t-110.5 -1q-28 9 -36 15.5t-4 14.5t8 22.5t-1 39.5l27 58l245 6l15 198
q-17 1 -39 30t-39 30q-9 3 -108.5 24t-139.5 50v79l367 -6l41 307q24 12 40 17t36.5 4.5t37 -17.5t29.5 -51q-1 -44 -2.5 -77t-4 -52t-7 -58t-7.5 -75l226 -2q-1 22 -2 61q-4 142 3 161q5 16 29 11q4 -1 11 -2q61 -14 116 -3z" />
    <glyph glyph-name="dollar" unicode="$" horiz-adv-x="1032" 
d="M408 938q12 309 12 311q-51 -16 -72 -57q-60 -107 -12 -178q22 -33 72 -76zM516 227q-24 -65 -61 -98t-115 -33q-38 77 -21 191q-92 4 -177 39t-122 82q-14 18 -3.5 45.5t41 40t83.5 -10.5q9 -5 38 -20t42 -20t37 -12t46.5 -4t47.5 13q13 45 19.5 72t15.5 71.5t8 70
t-4 67.5q1 8 3 23.5t3 23.5q-19 15 -60.5 44.5t-65.5 48.5t-54.5 45t-50 50.5t-29.5 49.5q-16 47 -14.5 95.5t27 97t64 88.5t95.5 69t123 39q16 119 41 223q18 1 40 8t44 16q9 4 14 6t13 5t12 4t10.5 2.5t10 0.5t7.5 -2.5t5.5 -4.5t3.5 -8t1.5 -11.5t-1.5 -15.5
q0 -105 -6 -213q93 -5 149 -24t49 -54q-8 -41 -39.5 -60.5t-74.5 -19t-95 3.5q-10 -145 -38 -432q38 -26 63.5 -46.5t49.5 -49t33.5 -55t6 -61.5t-23.5 -72q-39 -75 -79 -124.5t-102 -82.5q-2 -17 -5 -50.5t-5 -50.5z" />
    <glyph glyph-name="percent" unicode="%" horiz-adv-x="1232" 
d="M313 203q-8 -11 -17.5 -27t-17 -27.5t-17 -24.5t-20 -20.5t-24.5 -13t-32.5 -4.5t-41.5 8q-10 56 20 144.5t81.5 184t105 189.5t96.5 184t50 144q36 90 55.5 170t25 126t32.5 119.5t81 164.5q32 -3 43 -2t39 6q18 3 26 3.5t15.5 -2t6 -13t-10.5 -29.5
q-249 -825 -496 -1280zM383 1071q23 73 -33 129q-48 47 -109 45q-70 -3 -93 -72q-14 -42 -7 -102q5 -15 7.5 -38.5t5.5 -37.5t11.5 -28t28.5 -19t54 -2q13 2 29.5 4.5t25.5 3.5t22 3.5t18.5 5t15 7t11.5 10t8 14t5 19t1.5 25.5t-1.5 33zM389 870q-33 -25 -65 -35.5
t-62.5 -3.5t-54.5 17t-55 37t-50 47t-51 55q-23 31 -29 63t-1 57t23.5 55t34 47.5t42 45.5t35.5 39q145 114 232 32q64 -61 70 -198q7 -132 -44 -223q-12 -20 -25 -35zM743 315q75 -5 116 62q35 58 18 119q-20 66 -91 72q-44 5 -102 -17q-12 -8 -30 -15t-30 -11.5t-24 -13
t-17 -19.5t-4.5 -30t9.5 -46q8 -16 18.5 -42.5t15.5 -35.5t15.5 -22t23 -14t32.5 1t50 12zM549 262q-28 23 -44 48t-22.5 47.5t-2 51.5t11 50t24.5 53t30.5 51t35.5 53q24 30 54 44t55 15t58.5 -9.5t54 -21t53.5 -29.5t46 -25q145 -112 89 -215q-40 -74 -164 -115
q-125 -41 -230 -16q-27 7 -49 18z" />
    <glyph glyph-name="ampersand" unicode="&#x26;" horiz-adv-x="2404" 
d="M852 823q-28 17 -43.5 54.5t-21.5 73t-26 69.5t-56 47q-25 3 -69.5 0t-83 -6t-74 -3t-53 10.5t-9.5 31.5q25 15 63.5 18.5t71.5 0t70 4t61 30.5q-24 63 -82 178.5t-78 163.5q-64 -85 -112 -203.5t-94.5 -251t-92.5 -217.5v-45q-23 -1 -43.5 -1t-38 11.5t-24.5 34.5
q39 89 156 375.5t188 433.5q37 -7 64.5 -32t40.5 -52t31 -67.5t32 -61.5q38 -30 67.5 -75.5t45.5 -85.5t43 -85t59 -73q-9 -25 2.5 -60t28.5 -66t28.5 -61t0.5 -53.5t-52 -36.5zM1620 1593q-13 -70 -17 -175.5t-12.5 -198t-34.5 -164.5q-6 -25 -2.5 -56t10 -58.5t-3 -51.5
t-40.5 -33q-49 95 -171 244.5t-159 204.5q-6 5 -24 23t-30.5 26t-27.5 8q-12 -36 -18.5 -74t-11.5 -94.5t-7 -75.5q15 -90 -16 -127l-11 -170q-25 -11 -35 0t-15 34.5t-13 31.5q39 273 45 583q2 3 6.5 10t6.5 10.5t6.5 8.5t7.5 8t8.5 6t10.5 4t12.5 1t15.5 -2
q41 -61 139.5 -178.5t144.5 -192.5q10 -8 19.5 -17.5t20 -22.5t17 -21.5t18.5 -25.5t16 -22q19 19 29.5 46t12.5 46t3 54q2 40 7.5 106t9 111.5t2.5 103t-9 103.5q16 10 47 9t43 -22zM2087 922q-49 -9 -121.5 -45.5t-136.5 -59.5t-119 -10q-18 67 -12.5 157.5t18.5 156.5
t27 157t14 160q20 20 22 61.5t-3 77.5t11 63t62 25l170 -123q45 -46 69 -104t27 -128t-0.5 -125t-14 -138.5t-13.5 -124.5zM2005 1036q1 21 4.5 63t5.5 68.5t2.5 67t-3 68.5t-12 62t-23.5 58t-39.5 46.5t-57.5 37.5q-4 -14 -15 -54t-16 -59.5t-12 -52.5t-10 -61t-4 -57
q-1 -25 -13 -91t-11.5 -119t24.5 -91q14 6 51.5 19.5t57 22t41.5 28t30 44.5z" />
    <glyph glyph-name="quotesingle" unicode="'" horiz-adv-x="595" 
d="M205 1853q46 -15 70.5 -44t28 -68t0 -75.5t-8.5 -82.5t-2 -74q-4 -27 -5 -85.5t-8 -102t-28 -74.5q-36 -14 -62 13t-24 65q3 44 -0.5 123t-7.5 148.5t-4 134.5t12 98.5t39 23.5z" />
    <glyph glyph-name="parenleft" unicode="(" horiz-adv-x="937" 
d="M463 160q36 -16 76 -24t65 -9t47.5 -7t31.5 -20.5t9.5 -47.5t-12.5 -89q-8 -34 -89 -37.5t-174.5 21t-135.5 61.5q-93 133 -145 388.5t-52 500.5q2 60 4.5 160.5t4 145t6.5 114.5t12.5 109.5t21.5 85.5t35 85q12 22 84.5 48t171.5 40.5t170 2.5q24 -4 44.5 -58t20.5 -92
q3 -20 -42 -29t-102.5 -11t-113 -23t-69.5 -62q-43 -128 -52.5 -262t2 -231t31.5 -249.5t25 -262.5q1 -22 62.5 -124.5t62.5 -123.5z" />
    <glyph glyph-name="parenright" unicode=")" horiz-adv-x="911" 
d="M291 160q-36 -16 -76 -24t-65 -9t-47.5 -7t-31.5 -20.5t-9.5 -47.5t12.5 -89q8 -34 89 -37.5t174.5 21t135.5 61.5q93 133 145 388.5t52 500.5q-2 60 -4.5 160.5t-4 145t-6.5 114.5t-12.5 109.5t-21.5 85.5t-35 85q-12 22 -84.5 48t-171.5 40.5t-170 2.5
q-24 -4 -45 -58.5t-21 -91.5q-3 -20 42 -29t103 -11t113.5 -23t69.5 -62q43 -128 52.5 -262t-2 -231t-31.5 -249.5t-25 -262.5q-1 -22 -62.5 -124.5t-62.5 -123.5z" />
    <glyph glyph-name="asterisk" unicode="*" horiz-adv-x="1245" 
d="M821 1587q20 -61 20.5 -110.5t-16 -112.5t-35.5 -112t-37.5 -109t-23.5 -103q-12 -44 -59.5 -163.5t-57.5 -188.5q0 -17 -34 -23.5t-54 7.5l-43 26q-15 41 -10.5 74.5t14.5 71t20 68.5t5 68t-29 69h-92q-17 -127 -104 -287q-11 1 -38.5 -2t-48 -0.5t-32.5 18.5
q14 30 -14.5 52t-71.5 22q-11 54 -4.5 143t16 149.5t24 149.5t19.5 144q90 71 144.5 155.5t97.5 194.5q21 17 50 17.5t52 -15.5t15 -37q-6 -19 -22.5 -49t-28.5 -53.5t-19 -51t2 -53.5t37 -49q35 7 52.5 23.5t20 33t7 38.5t14.5 34q35 14 67 5.5t55.5 -25t60.5 -25t81 5.5z
" />
    <glyph glyph-name="plus" unicode="+" horiz-adv-x="1204" 
d="M385 397q3 101 27 283q-186 0 -330 18q-14 6 -18.5 9t-3.5 6t2.5 7t-2 12t-15.5 20l12 88l379 -9q40 210 78 336q9 13 13.5 17.5t7 3t5.5 -3.5t11.5 0.5t21.5 11.5l84 -29l-67 -340l307 -6q18 -30 12.5 -59.5t-45.5 -59.5q-135 -16 -303 -22l-67 -336q-32 -13 -59.5 -2
t-49.5 55z" />
    <glyph glyph-name="comma" unicode="," horiz-adv-x="595" 
d="M168 217q35 -34 43.5 -71t-6 -73t-34.5 -67t-45.5 -69.5t-35.5 -65.5q-16 -23 -43.5 -75t-53.5 -87.5t-59 -52.5q-39 3 -50 40t10 66q23 39 56 111.5t60.5 136t57 121.5t55.5 82.5t45 3.5z" />
    <glyph glyph-name="hyphen" unicode="-" horiz-adv-x="1179" 
d="M864 702q-310 -43 -649 0q-7 3 -70 22t-88 44v72l758 -15q5 -11 18 -25t24.5 -25t19.5 -23t5.5 -25t-18.5 -25z" />
    <glyph glyph-name="period" unicode="." horiz-adv-x="575" 
d="M342 143q3 -39 -8 -65t-38.5 -41t-48.5 -21t-63 -14q-22 -2 -39 5.5t-27.5 18t-19.5 31t-12.5 33.5t-9.5 38t-8 32q-12 123 62 135q59 10 132 -46q64 -50 80 -106z" />
    <glyph glyph-name="slash" unicode="/" horiz-adv-x="1026" 
d="M348 170q-41 -54 -86 -76t-119 0q-10 56 6.5 117.5t49 119t66.5 113t63.5 119t36.5 117.5q40 100 93.5 268.5t107.5 311.5t124 260q12 -3 28.5 -3t28 1t30.5 3q41 8 62.5 0t4.5 -44q-56 -186 -137.5 -403t-198.5 -505.5t-160 -398.5z" />
    <glyph glyph-name="zero" unicode="0" horiz-adv-x="1878" 
d="M1509 1069q13 -77 16 -166t1.5 -148.5t-15.5 -173t-20 -152.5t-27 -175q-110 -104 -246 -151t-274 -21q-119 3 -231.5 53t-199 127t-163.5 180.5t-130 204.5t-93 207q-48 13 -73.5 47t-27 76.5t8 84.5t28.5 79q97 184 260.5 299t368.5 149q26 -9 80 -26q63 -20 95.5 -31
t93.5 -32.5t96.5 -37.5t90 -42t89.5 -50t79.5 -58t76 -69t62.5 -80t54 -94zM1294 926q-9 52 -33 97.5t-54 78t-74.5 66.5t-81 55.5t-88 53t-82.5 52.5q-72 49 -151.5 44t-151.5 -45t-127 -105q-65 -58 -81 -122t7 -125.5t54.5 -120t58.5 -127.5t22 -126q31 -28 78.5 -77.5
t81 -84t82.5 -71t94 -52t105 -11.5t124 36q56 22 94.5 61t57 83.5t30 104.5t14.5 111t8 116t13 108z" />
    <glyph glyph-name="one" unicode="1" horiz-adv-x="608" 
d="M301 66q-7 -21 -20.5 -30.5t-35 -10t-43.5 2.5t-56.5 6.5t-63.5 2.5q6 229 31.5 436.5t27.5 269.5q3 74 6.5 255t13.5 300t38 256q22 2 50.5 8t44.5 9.5t34 2.5t30 -9q7 -191 -3 -456t-29.5 -583t-24.5 -460z" />
    <glyph glyph-name="two" unicode="2" horiz-adv-x="1384" 
d="M1065 -33q-82 -23 -171 -25.5t-177.5 -2.5t-159.5 -15q-52 0 -149 -14.5t-174.5 -14.5t-141.5 29q-13 50 1 81.5t48 47.5t71.5 26t78.5 25.5t61 38.5q72 56 133.5 116t116.5 130.5t93.5 144.5t64 157.5t28 169.5t-13.5 181q-15 17 -40.5 54.5t-49.5 63t-53 38.5
q-72 3 -205.5 -26.5t-206.5 -26.5q-1 2 -8.5 16t-9.5 20.5t-5 18.5t0 22t11 19q77 26 108 36t98.5 27t109.5 19.5t98 -1.5t106 -22q31 -10 64.5 -43t50.5 -61l18 -27q51 -51 71.5 -120t17.5 -124.5t-11 -137t-6 -125.5q-33 -56 -82 -155t-83 -163t-94 -138.5t-132 -123.5
q35 -14 87 -14t114.5 7t86.5 7q20 -6 55.5 0.5t64.5 14t62 -0.5t54 -39v-90z" />
    <glyph glyph-name="three" unicode="3" horiz-adv-x="1060" 
d="M713 700q-23 -38 -68 -85t-65 -78q54 -63 72 -144t18 -192q-47 -57 -122 -121t-97 -86q-28 -6 -48.5 -14.5t-30 -14t-25.5 -9t-44 -3t-76 5.5q-15 -8 -104 -3t-109 13q-60 69 -5 96q29 15 150 32q164 22 236 61q115 61 113 190q3 50 -50.5 103.5t-129 94.5t-149.5 77.5
t-116 65t-24 44.5q2 2 7 6q40 36 59 41q29 7 116 -23q19 -6 69 -24t79 -28q83 -30 138.5 -15t115.5 84q18 160 18 207q4 232 -135 330q-51 36 -92 59t-94 43t-106 17t-103 -29q-5 9 -19.5 21.5t-24.5 21.5t-16.5 26t4.5 35q32 17 66.5 23.5t74 2.5t67 -9.5t74.5 -18
t66 -16.5q11 -7 53 -35.5t57.5 -39t50.5 -36.5t54.5 -43.5t46 -43.5t48.5 -52q24 -75 38 -135t21 -133t-8 -141.5t-51 -127.5z" />
    <glyph glyph-name="four" unicode="4" horiz-adv-x="1118" 
d="M770 1536q46 -136 46.5 -199t-40.5 -284q-12 -99 -29.5 -293t-37.5 -356.5t-50 -309.5q-20 -13 -46 -16.5t-59.5 -3t-51.5 -2.5q14 95 22 242t23 268.5t51 226.5q-80 -18 -150 -27.5t-151.5 -11.5t-121.5 26.5t-23 86.5q-48 21 -71.5 175t-21.5 310.5t19 208.5
q64 13 103 -22t51.5 -98.5t17.5 -142t3 -149t6 -123t28 -61.5q16 -20 27 -32.5t23.5 -21.5t20.5 -13.5t22 -5.5t23 1t29 8.5t35 12.5t44.5 18t55.5 21q25 70 40.5 139t21.5 118.5t6 109.5t-3 91t-8.5 85.5t-7.5 72.5q18 -12 38 -12t35 5t30 7.5t28 -9t23 -40.5z" />
    <glyph glyph-name="five" unicode="5" horiz-adv-x="1376" 
d="M1126 1141q-9 -18 -60 -46q-89 -48 -124 -16q-20 18 -16 64q2 23 -46 54t-122 53t-152.5 32t-146 -8.5t-92.5 -67.5q5 -35 -5 -69.5t-24.5 -61.5t-27 -56t-12.5 -64.5t19 -75.5q46 -54 127 -84t158.5 -42t149.5 -30t116 -65t43 -130q5 -40 -13.5 -124t-53.5 -179
t-93.5 -187t-123.5 -138q-130 2 -241 18.5t-196.5 47.5t-125.5 82.5t-19 117.5q46 11 116.5 -1.5t133.5 -34t138.5 -37.5t127.5 -11q15 37 59 116.5t73.5 154t33.5 149.5l-48 12q-64 16 -96.5 24.5t-91.5 25t-90.5 29.5t-80.5 33t-74 40t-58.5 46.5t-47.5 57t-26.5 66.5
t-10.5 79.5t14 92.5q17 39 36.5 109t36.5 127.5t43.5 116t71.5 96t107 46.5q52 8 148.5 -14t200 -63.5t194.5 -90.5t140.5 -102t30.5 -92z" />
    <glyph glyph-name="six" unicode="6" horiz-adv-x="1337" 
d="M1020 436q-11 -39 -16 -115t-20.5 -140.5t-57.5 -114.5q-29 -28 -87 -52t-81 -37q-37 -26 -118.5 -32.5t-174.5 8.5t-182 70.5t-131 142.5q-83 287 -108 402q-105 484 32 753q66 129 186 215q30 6 84.5 21t97 26t97.5 21.5t100.5 10t91 -9.5t83 -37t63.5 -73
q2 -14 5 -34.5t5 -31.5t3 -26.5t-0.5 -22t-5.5 -15t-12 -10t-20.5 -1.5t-30.5 5.5t-41.5 15t-54.5 24.5q-94 74 -311 16q-45 -24 -81 -57.5t-60.5 -69.5t-42.5 -83t-28.5 -90t-15.5 -98.5t-5.5 -100.5t2 -104.5t6 -102t8.5 -100.5q1 -15 2 -23.5t2 -21.5t2 -23
q11 -58 17 -86t19.5 -80t27.5 -83.5t35 -71t49 -70.5t63 -56q145 7 246.5 41t177.5 127q20 26 -1.5 74.5t-64 88.5t-78.5 48q-24 -2 -85 -16.5t-126.5 -29.5t-134 -26.5t-123.5 -8t-77 25.5q13 72 62.5 113.5t119.5 55t141 18t145 13t113 29.5q49 -12 163 -94.5t126 -116.5z
" />
    <glyph glyph-name="seven" unicode="7" horiz-adv-x="1273" 
d="M115 1456q-8 25 0 44.5t29 31.5t37 18t38 11q91 -42 212.5 -72.5t217.5 -45.5t206.5 -50t191.5 -88q-72 -154 -169 -387.5t-167.5 -403.5t-173 -376.5t-207.5 -366.5q-49 10 -89 60t-46 99q76 142 178 383t141 324l279 586q-50 55 -133.5 90t-162.5 48.5t-178.5 36.5
t-164.5 54z" />
    <glyph glyph-name="eight" unicode="8" horiz-adv-x="1126" 
d="M156 1526q91 41 178 54t175.5 -12t152.5 -93q52 -76 72.5 -170t10 -190.5t-36 -185.5t-65.5 -175q-14 -30 -47.5 -40t-78.5 -12.5t-66 -11.5q-31 9 -73.5 7.5t-81.5 -7.5t-72 7t-44 51q-47 37 -79 108.5t-42 119.5t-24 140q-3 17 -4 25q12 38 16 102.5t5.5 112.5t26.5 97
t77 73zM143 1194q6 -56 17 -104t33.5 -98.5t54 -85.5t81 -57.5t111.5 -21.5q35 9 65 37t46 62q52 69 68 159.5t0.5 175t-54.5 160.5q-83 39 -169.5 37.5t-166.5 -35.5q-42 -18 -57 -56t-18 -93.5t-11 -79.5zM690 625q30 -64 50.5 -114t42 -122.5t25.5 -128t-11.5 -113
t-55.5 -96.5q-43 -31 -85.5 -48t-86 -18t-80.5 4.5t-84.5 24t-81.5 34.5t-88.5 42.5t-89.5 42.5q-31 13 -45 46.5t-21 80t-16 66.5q0 33 -8 61.5t-13.5 42.5t0 39.5t28.5 62.5q46 106 92 150t139 61q33 -10 82 -12.5t91 -3t84.5 -7t77 -30t54.5 -65.5zM356 631
q-83 -10 -115 -37t-36.5 -89t0.5 -167q2 -10 6 -28.5t6.5 -29t8 -24t14 -22.5t20.5 -15q76 -54 137 -76.5t125 -16t137 45.5q16 30 17 72.5t-4 75t-24.5 86.5t-28.5 73.5t-31 69.5q-18 42 -56 56.5t-95 16.5t-81 9z" />
    <glyph glyph-name="nine" unicode="9" horiz-adv-x="1597" 
d="M205 1284q326 241 762 164q5 -4 20.5 -15.5t22 -17.5t14.5 -18t6.5 -25.5t-10.5 -30.5q83 -53 130 -141t58.5 -187.5t-1.5 -220.5t-42.5 -232t-72.5 -230q-91 -99 -185.5 -165.5t-182.5 -100t-186.5 -43t-187.5 -0.5t-194 34q-20 8 -34 27t-17.5 43t17 50t64.5 44
q120 8 200.5 6t141 1.5t140 42.5t198.5 128q84 142 113.5 300t5 295.5t-93.5 242.5q-290 109 -569 -51q-63 -65 -83.5 -132t-1.5 -119.5t66.5 -91t114.5 -53.5q63 -15 291 30.5t292 45.5q33 0 71 -42q49 -55 31 -104q-32 -89 -278 -80q-60 3 -131 11q-155 -42 -310 -30.5
t-204 53.5q-37 32 -59.5 109t-24.5 166.5t25.5 183.5t83.5 153z" />
    <glyph glyph-name="colon" unicode=":" horiz-adv-x="653" 
d="M342 471q3 -39 -8 -65t-38.5 -41t-48.5 -21t-63 -14q-22 -2 -39 5.5t-27.5 18t-19.5 31t-12.5 33t-9.5 37.5t-8 32q-12 123 62 136q59 10 132 -46q64 -50 80 -106zM147 965q-23 12 -38 26.5t-19.5 33.5t-6.5 32.5t5.5 39t11.5 37t15 40.5q10 19 25.5 29.5t30.5 13
t36.5 -1t35 -8t35.5 -12.5t31 -11q112 -58 80 -128q-23 -51 -104 -81q-80 -30 -138 -10z" />
    <glyph glyph-name="semicolon" unicode=";" horiz-adv-x="608" 
d="M190 698q25 17 49.5 21t42 0t40 -21t34.5 -29t35 -38q12 -18 14 -36.5t-2 -32.5t-17 -32t-23 -28t-28 -26.5t-24 -22.5q-104 -75 -152 -10q-36 48 -21 139q12 76 52 116zM229 217q43 -42 44.5 -91t-20.5 -85.5t-56 -88t-45 -81.5q-16 -23 -43.5 -75t-53.5 -87.5
t-59 -52.5q-39 3 -50.5 40t9.5 66q23 39 56 111.5t60.5 136t57 121.5t55.5 82.5t45 3.5z" />
    <glyph glyph-name="less" unicode="&#x3c;" horiz-adv-x="1216" 
d="M1004 29l-52 -58q-45 58 -108 58q-28 -25 -40 -73.5t-10.5 -100t-1.5 -104.5t-12 -92t-43 -57t-94 -5q-32 16 -49.5 49.5t-20.5 70t-6 78t-6 73t-20.5 54t-50 22t-93.5 -23.5q-42 32 -50.5 71.5t3.5 76.5t23.5 74.5t3 76t-50.5 70.5l34 274q-6 4 -17.5 18t-22 19.5
t-23.5 -0.5q-25 -37 -35 -91t-19.5 -106.5t-33.5 -85.5q-8 -35 -1.5 -70t0.5 -73t-34 -57q-32 -5 -55.5 6t-36.5 27.5t-34.5 37t-47.5 29.5q28 176 42.5 516.5t43.5 507.5q31 -15 52.5 -12.5t47 19.5t45 36.5t46 37t49.5 21.5q46 150 157 261q57 33 119 34.5t116.5 -23.5
t101 -62.5t83.5 -86.5q55 -132 78 -246t23 -259q109 -547 0 -932zM569 1255q-4 2 -34 27t-52 25q27 -23 32 -51t-5 -53.5t-15 -57.5t3 -62h37q-7 20 -3 47t9.5 42.5t14.5 41t13 41.5z" />
    <glyph glyph-name="equal" unicode="=" horiz-adv-x="1179" 
d="M864 702q-310 -43 -649 0q-7 3 -70 22t-88 44v72l758 -15q5 -11 18 -25t24.5 -25t19.5 -23t5.5 -25t-18.5 -25zM801 367q-172 -24 -354 -30t-371 13q-11 5 -13.5 9t2.5 7.5t11.5 8t12 9.5t4.5 13.5t-11 18.5l16 51l502 18q4 -8 18 -8.5t31.5 7.5t39.5 8t42 -6.5t39 -36.5
t31 -82z" />
    <glyph glyph-name="greater" unicode="&#x3e;" horiz-adv-x="1245" 
d="M827 1274q20 -80 23 -171t-7.5 -172.5t-28 -174t-35.5 -169.5t-34 -165t-20 -156q-12 -76 -66 -297.5t-65 -351.5q0 -31 -38 -42t-58 15l-49 50q-17 74 -12 135.5t16 129t22 125t6 124.5t-32 127h-105q-16 -220 -117 -525q-12 2 -43 -4t-53 -1t-35 32q14 55 -17 97
t-79 42q-7 117 -6 208.5t10 217t19 220t21.5 218t16.5 211.5q100 133 161.5 288.5t109.5 352.5q20 33 55 34t59.5 -27.5t16.5 -67.5q-7 -34 -26 -89t-32 -99t-21.5 -94.5t2 -98t42.5 -88.5q38 12 58 41t22.5 59t7 70t14.5 63q28 18 53.5 16.5t44.5 -17t41 -33t43 -33t51 -17
t64 16.5z" />
    <glyph glyph-name="question" unicode="?" horiz-adv-x="1374" 
d="M70 1571q0 34 34.5 59t71.5 23q64 -16 130 -19.5t117 1.5t118.5 5t136.5 -8q75 -5 118 -2t77.5 -6.5t72.5 -40.5q22 -17 45 -51t35 -59l12 -25q4 -469 -51 -719q-7 -30 -101.5 -38.5t-204 -3t-201 3t-93.5 -22.5q-26 -219 -29 -262q-5 -62 -15 -106t-12 -58.5t1 -100.5
q-23 -15 -40 -23.5l-30 -15t-23.5 -6t-16.5 0.5t-14.5 9t-12.5 14t-14.5 20.5t-16.5 23.5l-14 311q22 156 55 322q7 35 63 49.5t133.5 14t156.5 -4t145.5 3t87.5 29.5q29 31 44.5 97t18 139t1 142t-6.5 113l-4 45q-69 19 -157.5 23t-160 0.5t-162 4t-165.5 32.5
q-14 1 -37 1.5t-31.5 1t-22.5 3.5t-19 8t-11 14t-7 23t-1 35zM291 -174q13 31 -10 50q-29 24 -75 -11q-16 -13 -32 -33q3 -9 4.5 -23.5t3 -23t7 -17t17.5 -12t32 -2.5q9 1 21 3t16 1.5t9.5 3t6.5 3.5t2.5 7.5t0.5 11t-1.5 18t-1.5 24.5zM301 -334q-24 -18 -48 -21.5t-42 1
t-40.5 22.5t-36.5 32.5t-36 41.5q-16 22 -19.5 43.5t7.5 43t20.5 34.5t31 35t26.5 28q99 74 150 6q40 -52 31 -147q-7 -79 -44 -119z" />
    <glyph glyph-name="at" unicode="@" horiz-adv-x="1853" 
d="M852 823q-28 17 -43.5 54.5t-21.5 73t-26 69.5t-56 47q-25 3 -69.5 0t-83 -6t-74 -3t-53 10.5t-9.5 31.5q25 15 63.5 18.5t71.5 0t70 4t61 30.5q-24 63 -82 178.5t-78 163.5q-64 -85 -112 -203.5t-94.5 -251t-92.5 -217.5v-45q-23 -1 -43.5 -1t-38 11.5t-24.5 34.5
q39 89 156 375.5t188 433.5q37 -7 64.5 -32t40.5 -52t31 -67.5t32 -61.5q38 -30 67.5 -75.5t45.5 -85.5t43 -85t59 -73q-9 -25 2.5 -60t28.5 -66t28.5 -61t0.5 -53.5t-52 -36.5zM1485 1442q-41 -46 -70 -21q-45 32 -113.5 53t-124.5 31t-118 37.5t-101 73.5q17 19 44 20.5
t52 -7t59 -20.5t56 -14l297 -79q5 -10 8.5 -21.5t6 -28.5t4.5 -24zM1141 793q-5 -1 -13 -7t-13.5 -10.5t-12 -4.5t-12.5 9l-31 31q12 66 11 150.5t-8 156.5t-1.5 159t29.5 157q5 -4 18.5 -9t22 -12t10.5 -20v-600z" />
    <glyph glyph-name="A" unicode="A" horiz-adv-x="1359" 
d="M1159 223q-39 -26 -95.5 -9t-74.5 71q-20 159 -67 346.5t-93 333.5t-92 341.5t-65 372.5q-1 11 -0.5 25t2 25.5t7 17.5t15.5 2q36 -17 67 -53.5t56 -91t44.5 -109.5t38 -131.5t31.5 -134t29.5 -138t26.5 -124.5zM750 580q-33 -10 -71 -6.5t-72.5 18t-72.5 26t-72 17.5
t-70.5 -7t-67.5 -48q-12 -47 -39 -164.5t-51.5 -199t-57.5 -155.5q-8 -18 -36.5 -18t-53.5 9l-25 9q8 140 49 303t88.5 291t101.5 294.5t79 295.5q13 33 24 82.5t19 90.5t21.5 82t40 71.5t65.5 46.5l31 -55q-4 -150 -70 -403t-78 -355q32 -18 79.5 -30.5t85 -21.5
t73.5 -26.5t57 -53.5t23 -93z" />
    <glyph glyph-name="B" unicode="B" horiz-adv-x="1005" 
d="M762 748q-24 -39 -73 -89.5t-71 -85.5q58 -67 78.5 -155t20.5 -201q-44 -30 -81 -63.5t-85.5 -86t-67.5 -71.5q-34 22 -63 16t-64.5 -21t-66.5 -30t-68 -11.5t-69 34.5q-5 -4 -16 -16t-21 -17t-21 0q-47 54 -66.5 119t-14 128t18 134.5t28 138t17 139.5t-15.5 138
q4 58 -7.5 173.5t-21 205t3.5 169t58 97.5q30 12 38.5 -40t10 -140t10.5 -181t52 -174.5t123 -109.5q84 -33 179.5 -13t156.5 90q1 12 5 38q22 186 10 281q-20 169 -138 253q-54 38 -98 63t-100.5 46t-113 18t-110.5 -31q-5 10 -20.5 23.5t-25.5 23t-17 27.5t5 37
q33 19 70 26t78.5 2.5t72.5 -11t78 -19t70 -17.5q8 -5 48.5 -32t53 -35.5t46 -32t51 -38t44 -37t48 -45t41.5 -46.5q26 -82 40 -144t22 -141t-7.5 -151t-54.5 -135zM528 283q16 33 18 65t-11.5 63.5t-27 53t-40 56.5t-37.5 52q-21 5 -52 17.5t-50 19.5t-52.5 12t-58.5 -4
q-14 -108 -45 -479q28 -9 56 -10.5t55 6t50.5 17.5t51 28t47.5 32t49 36.5t47 34.5z" />
    <glyph glyph-name="C" unicode="C" horiz-adv-x="1404" 
d="M1163 1337q-32 -38 -84 -26q-95 61 -213.5 82.5t-238.5 -0.5q-25 -7 -58.5 -42t-40.5 -40q-19 -59 -63.5 -160.5t-72.5 -189.5t-32 -175q-7 -207 84 -313q47 -54 105.5 -89t120.5 -49t133.5 -18t142.5 2q80 -65 70 -131q-49 0 -122.5 -11t-124.5 -18.5t-117.5 1.5
t-123.5 43q-62 36 -109 91t-73 105.5t-64.5 121.5t-74.5 120q-24 177 4.5 351.5t122.5 333.5t244 249q64 19 135.5 21t141 -14t130.5 -46.5t108 -82t70 -116.5z" />
    <glyph glyph-name="D" unicode="D" horiz-adv-x="1388" 
d="M1192 915q-9 -30 -26 -92q-27 -98 -42.5 -150t-48 -146t-60 -149t-73 -128.5t-93 -117t-113.5 -81.5t-142 -53q-57 16 -105.5 11.5t-100.5 -12.5t-96 -15.5t-91 3.5t-86 44q31 199 209 1366q-8 24 -29.5 42t-43.5 28t-43 26t-27.5 35t3.5 57l121 119q55 -29 135.5 -63.5
t149 -61.5t149 -65.5t144 -75.5t125 -91t101.5 -113.5t63 -141t20 -175.5zM903 1075q-25 16 -53.5 45.5t-51.5 58.5t-53 60.5t-57.5 50.5t-66.5 29t-78 -4q-9 -125 -46.5 -282.5t-74 -277.5t-59 -272t-9.5 -284q148 9 255 33t194 85q231 457 100 758z" />
    <glyph glyph-name="E" unicode="E" horiz-adv-x="1667" 
d="M1458 1380q-59 -19 -124.5 -20t-122.5 10t-117 26t-116 24t-110 7.5t-109.5 -26t-105.5 -74.5q8 -48 -7 -104.5t-35 -103.5t-33 -95t4 -95.5t71 -88.5q38 -14 100 -18.5t116 -7t107 -12.5t88 -42.5t44 -89.5q-40 -30 -91.5 -37.5t-101.5 2t-103.5 24t-105 23.5t-99 6
t-91 -33.5t-76.5 -91.5q0 -36 -14.5 -81.5t-29 -84t-24 -79.5t1 -81.5t46.5 -76.5q40 -16 99 -23t111.5 -6t109 -5.5t99 -21t73 -53.5t38.5 -102q-33 -37 -77.5 -44t-82 5t-87.5 26t-82 13q-268 -12 -508 84q37 79 57 187t30 207t26 200.5t58 198.5t113 171
q23 61 40.5 160.5t29 173t50 151.5t104.5 122l817 -97q19 -14 24 -33.5t0.5 -52.5t-4.5 -41z" />
    <glyph glyph-name="F" unicode="F" horiz-adv-x="1466" 
d="M1229 1593q23 -63 -17.5 -88.5t-97.5 -11.5q-45 23 -100 35.5t-128.5 22.5t-111.5 18h-495q-1 -27 -6.5 -88.5t-8.5 -102.5t-0.5 -100.5t13 -102t36 -87t64.5 -74.5q140 -36 225.5 -61t202 -72.5t209.5 -106.5q0 -5 0.5 -18t0 -19t-1.5 -17.5t-3.5 -18t-7 -15.5
t-12 -15.5t-17.5 -11.5q-239 138 -637 240q-25 -8 -40.5 -26.5t-20.5 -39t-3.5 -51t5 -52t10 -52.5t8.5 -43q17 -97 24 -174t-1 -175.5t-39 -179.5q-9 2 -23.5 7t-23 7.5t-24.5 4.5t-28 -2q-44 101 -64 226t-20.5 252t4 250t1.5 260t-21 243l16 354q69 -22 160.5 -23.5
t178 8t175 16t178 -6t160.5 -51.5q74 31 152.5 14.5t128.5 -72.5z" />
    <glyph glyph-name="G" unicode="G" horiz-adv-x="1329" 
d="M1096 664q-39 -32 -64 -81t-36 -99.5t-20.5 -106t-24 -104t-38.5 -89t-70.5 -66t-115.5 -30.5q-59 -7 -125.5 -3.5t-126.5 15t-118 44t-99 83.5q-172 215 -203.5 478.5t76.5 521.5q29 39 59.5 99.5t52.5 112t56.5 105.5t71.5 89.5t96 54t133 8.5q22 -12 61.5 -14.5
t75.5 -1.5t71 -3.5t57 -27.5t24 -66q-51 -10 -140.5 -13.5t-150.5 -7.5t-129.5 -34.5t-110.5 -91.5q9 -37 1.5 -61t-33.5 -55t-35 -46q-33 -114 -53.5 -210.5t-29 -211t4.5 -211.5t55.5 -197t116.5 -182q27 -30 72 -42t79.5 -10.5t94 9t76.5 8.5q161 94 161 342
q-19 11 -50 15.5t-55 5.5t-48 16t-35 45v45q16 2 67 8.5t78 9.5t74 4t77 -3.5t63.5 -17t56.5 -33.5z" />
    <glyph glyph-name="H" unicode="H" horiz-adv-x="1427" 
d="M1176 1604q10 -197 -10.5 -610.5t-10.5 -614.5q-26 -43 -71.5 -57.5t-92.5 8.5q-15 58 -16.5 137.5t2.5 180.5t2 159q-9 5 -27 18.5t-28 19.5t-26.5 12.5t-28 4.5t-26.5 -11.5t-28 -29.5q-349 40 -559 21q-9 -99 -30 -269.5t-34.5 -313t-17.5 -269.5q-14 -11 -29 -30.5
t-28 -28.5t-37 -9q-34 52 -46.5 132.5t-10 144.5t11.5 167.5t10 147.5q27 91 33 218t0 232.5t2 231.5q52 64 129 53q27 -36 33 -91t0 -103t2 -105q73 6 186.5 -5.5t197.5 -21t182 8t169 74.5q23 70 29 160.5t2 164t4 164.5t33 164q85 0 129 -55z" />
    <glyph glyph-name="I" unicode="I" horiz-adv-x="458" 
d="M291 264q-1 -7 -4.5 -25t-6 -30.5t-7.5 -31.5t-10.5 -31t-13 -25.5t-17 -18.5t-21.5 -7t-27.5 5t-33.5 23q-35 51 -48 126t-9.5 141.5t1 148.5t-19.5 137q20 96 18 212.5t-15 212t-20 211t2 208.5q58 12 108 -10.5t50 -79.5q23 -170 35.5 -361t22 -438t16.5 -367z" />
    <glyph glyph-name="J" unicode="J" horiz-adv-x="1144" 
d="M133 193q28 -31 54 -65t35.5 -46.5t30 -27t47 -20.5t75.5 -14q86 -12 221 13.5t199 75.5q27 176 22.5 362.5t-20 310t-34 234t-18.5 135.5q-15 151 -25 270.5t-14 171.5t-10 88q-9 15 -28 20t-36 2.5t-41.5 -7.5t-31.5 -6q-20 -52 -5.5 -196t7.5 -212l29 -338
q-9 -31 4.5 -146t21.5 -236.5t-24 -280.5q-29 0 -106.5 -17.5t-123.5 -13.5q-112 13 -167 208q-16 56 -19 56q-1 1 -2 -2q-52 0 -79 -19.5t-30.5 -48.5t5 -67t22.5 -71t27 -66t14 -47z" />
    <glyph glyph-name="K" unicode="K" horiz-adv-x="1429" 
d="M1153 1077q-69 -42 -240 -151t-304.5 -187.5t-252.5 -134.5v-41q62 -64 148.5 -139t157 -134.5t143.5 -129t133 -150.5t100 -170q-8 -15 -26.5 -17.5t-37 1.5t-36.5 0q-61 83 -147 168.5t-158 145.5t-155 141.5t-138 158.5q-41 -4 -61 -39t-25 -85t-9.5 -102.5t-25 -101
t-61.5 -71.5q-39 -17 -70 12.5t-47 71.5l16 1495q22 4 43 -1.5t36 -14.5t32 -28t26 -31t25 -35t21 -31q-4 -94 10.5 -311t5.5 -328q18 -24 46 -32.5t54 -0.5q285 121 482 299l241 215q9 -12 34.5 -37.5t43.5 -47t32 -48.5t5.5 -55t-41.5 -54z" />
    <glyph glyph-name="L" unicode="L" horiz-adv-x="1189" 
d="M987 41q6 -12 7.5 -23.5t-3.5 -21.5l-8.5 -17t-16 -15.5t-16.5 -12t-20.5 -10.5t-17.5 -8t-17 -7q-95 33 -219.5 50.5t-221 22.5t-210.5 28t-199 67q55 161 127 404t124 419.5t132.5 393t167.5 385.5q50 -6 96.5 -52t57.5 -94q-61 -150 -140 -403.5t-106 -331.5
l-213 -612q55 -50 141.5 -75.5t166 -30.5t180.5 -18t169 -38h39z" />
    <glyph glyph-name="M" unicode="M" horiz-adv-x="2826" 
d="M2402 152q-9 -7 -20.5 -18.5t-19.5 -19t-19 -15.5t-21 -12t-23 -3.5t-28 6.5q-46 65 -80.5 141t-58.5 169t-37 158.5t-31 174.5q-4 22 -10 69t-10.5 77t-16 70.5t-26.5 66t-41.5 47t-61.5 27.5q-39 -59 -119.5 -207t-148.5 -236q-19 -103 -78 -161.5t-174 -108.5
q-49 12 -84 41t-56 69t-36 80t-34.5 87.5t-41.5 78.5q-21 80 -66.5 168t-94 163t-95.5 152.5t-79.5 163.5t-36.5 168q49 3 92.5 -23t70 -59t66.5 -87.5t66 -82.5q143 -330 286 -581q65 3 111 32.5t74 74.5t51 93t58 97.5t79 77.5q7 45 31.5 90.5t54 84t57.5 78t47 86.5
t19 95q29 16 55.5 17.5t45 -7.5t38.5 -30t33 -40t31.5 -47t29.5 -43q17 -136 57 -304.5t78 -300t73 -301t44 -316.5zM631 1358q-10 -25 -39 -98t-43 -108t-39.5 -91.5t-50.5 -102.5q-21 -76 -76.5 -266.5t-91 -329.5t-58.5 -272h-208q2 124 34 255.5t81 253.5t100.5 238.5
t103.5 252t80 251.5q4 61 73 118q62 52 113 49q55 -3 43 -78q-5 -31 -22 -72z" />
    <glyph glyph-name="N" unicode="N" horiz-adv-x="1677" 
d="M1329 1393q-4 -109 -11.5 -322.5t-11.5 -327t-8.5 -290.5t-7.5 -344q-14 -32 -41 -45.5t-54.5 -7t-47.5 29.5q-86 130 -222.5 362t-260 421t-256.5 343q-14 3 -23.5 -2.5t-20.5 -18t-18 -17.5q5 -106 -7.5 -236.5t-28 -230t-23 -233t5.5 -245.5q-13 -25 -43.5 -32t-60 -1
t-54.5 19q-75 100 -22 324q7 205 63.5 601.5t63.5 600.5q20 5 32.5 4t26.5 -12t23 -21.5t22.5 -24.5t24.5 -22q-15 -78 2.5 -145t58 -119t85 -97.5t92 -104t71.5 -116.5q68 -90 204.5 -318t227.5 -331q35 93 48 229.5t9.5 257t-1 267t19.5 244.5q23 10 41.5 15t40 5.5
t37.5 -14.5t24 -45z" />
    <glyph glyph-name="O" unicode="O" horiz-adv-x="2004" 
d="M1622 1217q49 -102 66 -210t3.5 -215t-42.5 -204t-76 -203q-7 -6 -19.5 -19.5t-20.5 -21.5t-20.5 -17.5t-23 -13.5t-24 -3.5t-27.5 7.5q-84 -95 -195 -152.5t-224.5 -76.5t-243.5 -11.5t-244 32.5t-232 65q-136 154 -194 357t-36 409t115 391q16 24 42.5 47.5t56.5 39
t54 2.5t30 -60q-10 -54 -26.5 -133.5t-27 -130.5t-22 -122.5t-15.5 -123.5t-3 -119t11 -124t30.5 -122t52.5 -129q97 -62 230 -80.5t268 2.5t263.5 66.5t231.5 108.5q46 72 77.5 145.5t50 153t16.5 164t-27 165.5q-50 61 -112 94.5t-125 39.5t-135 0t-140.5 -23.5
t-141.5 -29.5t-139 -19.5t-133 6.5q-10 20 -13 38.5t-1 33.5t12 30t19 26t27.5 23.5t31 20t35.5 18t34.5 15.5t35 14t30.5 12q44 3 116 9l120 10t115 6t116 -2t108 -15.5t105 -32.5t93.5 -56t86.5 -82z" />
    <glyph glyph-name="P" unicode="P" horiz-adv-x="1501" 
d="M1079 938q-25 -23 -46.5 -62t-37 -74t-36 -67t-51.5 -47.5t-74 -9.5q-41 -33 -92.5 -39t-106.5 8t-108.5 33t-116.5 35t-113 14l-37 -51q-12 -103 -1.5 -246t18 -235.5t-16.5 -235.5q-32 -29 -63 -27.5t-55.5 22.5t-39.5 54q-11 175 -15.5 382.5t-4 354.5t2 381t1.5 347
q561 107 834 -89q30 -34 53.5 -64.5t47.5 -67.5t39 -73.5t24.5 -76t8 -82t-13.5 -84.5zM920 1141q-29 62 -92.5 110t-138.5 74t-157 40t-150 13t-115.5 -11.5t-55.5 -29.5q-11 -25 -1 -94.5t34.5 -174.5t29.5 -130q51 -48 113.5 -84.5t133.5 -58.5t149 -18t149 38
q20 28 33 48t29 48.5t24.5 53.5t15.5 54t6.5 59.5t-7.5 62.5z" />
    <glyph glyph-name="Q" unicode="Q" horiz-adv-x="1538" 
d="M1262 866q43 -304 -248 -610q-10 -11 36 -107.5t44 -107.5q-20 -153 -99 -42q-13 18 -68 113q-22 35 -28 35q-146 -123 -334 -235q-63 -10 -119 6t-92 39.5t-78.5 79t-60 85.5t-54.5 98q-24 45 -36 65q-95 179 -80.5 404.5t121.5 391.5q28 9 62 42.5t61.5 67t58 60
t64.5 22t69 -49.5q-2 -33 -18.5 -63.5t-39.5 -56t-47 -50t-46 -54t-31 -59.5q-42 -130 -57 -258.5t4 -264.5t78 -247q42 -55 82.5 -78t72 -21.5t70.5 28t65 54.5t69 75t71 73q4 4 0 9.5t-13 12t-14.5 20.5t-5.5 31.5t15 49t46 70.5q26 33 46.5 24t32 -34.5t21.5 -50.5
t15 -23q97 111 145 219.5t37 236.5q-123 295 -315 414q-22 20 -56 30.5t-65.5 14t-62 10.5t-52 28t-28.5 58q34 9 69 10.5t72.5 -7t65.5 -16.5t69 -28t62 -31t65.5 -36t59.5 -33q195 -166 299 -414z" />
    <glyph glyph-name="R" unicode="R" horiz-adv-x="1419" 
d="M1124 1264q14 -103 -19.5 -205.5t-109.5 -147.5q-28 -38 -72 -60.5t-84.5 -29.5t-88.5 -22.5t-78 -40.5q2 -43 20.5 -84.5t45.5 -76.5t54.5 -69t50 -73.5t29.5 -77.5q112 -125 82 -213q-7 -22 -27 -29t-39.5 -2.5t-33.5 14.5q-41 79 -121 204.5t-139.5 234.5t-91.5 213
q22 39 65 55.5t91.5 18.5t98 5t95.5 24.5t74 66.5q64 56 89 131t-1 151q-112 117 -246.5 170.5t-278.5 24.5q-42 -98 -79.5 -296t-59.5 -269q-9 -91 -23.5 -198t-25.5 -176t-33 -200.5t-30 -183.5q-26 -26 -58.5 -26t-58.5 26q-13 48 -14.5 104.5t9 118.5t22 110.5
t30.5 112.5q25 88 51.5 320t71.5 346q-32 165 110 311q481 17 723 -282z" />
    <glyph glyph-name="S" unicode="S" horiz-adv-x="1009" 
d="M805 1501q-1 -18 -31 -24.5t-75.5 -4.5t-101.5 -2.5t-107 -14.5t-95.5 -43t-64.5 -87q-19 -51 -30.5 -100.5t-15.5 -105t13 -85.5q20 -43 55 -85.5t72.5 -75t79.5 -69t78.5 -68t66.5 -70.5t46.5 -79.5t16.5 -92.5t-22 -111q-24 -63 -41 -101.5t-44.5 -86.5t-63.5 -82
t-82 -58q-108 -53 -246.5 -1t-192.5 149q-14 25 -2.5 54.5t42.5 37.5t83 -25q15 -10 34.5 -27.5t34 -32t34 -28.5t37 -20.5t39 -4.5t43.5 15q112 66 151.5 187t-8.5 247q-18 46 -59 92.5t-87.5 85t-93 77.5t-84 87.5t-51.5 98.5q-16 69 -13.5 140.5t29.5 142t67.5 127.5
t100.5 97t129 50q58 8 118.5 8t117.5 -9.5t92 -35.5t31 -66z" />
    <glyph glyph-name="T" unicode="T" horiz-adv-x="1882" 
d="M1624 1077q-50 -35 -102.5 -38.5t-96 16t-93.5 46t-96.5 52t-104 33t-115.5 -9.5q-17 48 -40 63.5t-52.5 9.5t-73 -7t-100.5 13l-68 -30q-25 -255 -19.5 -708t-19.5 -685q-17 -14 -43 -19.5t-46.5 -5t-55.5 2.5t-52 2q5 277 47.5 772.5t51.5 709.5q-27 41 -87 63
t-105 26.5t-128 7.5l-66 3t-55.5 6t-45.5 12.5t-25 22.5t-8 36t21 53t48 73q51 -33 113 -45t121.5 -7t122 15t122 16.5t113.5 2t104.5 -33.5t88.5 -85q42 -3 90.5 -23t85 -43t84 -43t87.5 -23.5t95 15.5q17 -26 47.5 -43t61.5 -24.5t66 -17t61.5 -18.5t47.5 -29.5t25 -51
t-6 -82.5zM1085 1264q-5 6 -17.5 6t-21.5 -3l-10 -3v-39l34 15q21 14 15 24z" />
    <glyph glyph-name="U" unicode="U" horiz-adv-x="1572" 
d="M1149 1430q2 -120 -1 -245t-14.5 -276t-31 -286.5t-54 -265.5t-79 -224t-110.5 -151.5t-146 -57.5q-99 26 -193.5 76.5t-176 120t-136.5 163t-68 195.5q-8 70 -28.5 207.5t-31.5 229.5t-19.5 210t0.5 219.5t36 186.5h27.5t26.5 -2t28 -6t21.5 -11t18.5 -19.5t7 -29.5
q8 -80 11.5 -192.5t5.5 -206.5t8.5 -203.5t25 -204t50 -186.5t88.5 -172.5t137 -142.5q48 -14 88.5 -5.5t69 24.5t54 48.5t42.5 65.5t35.5 75t32.5 78.5t33 75.5t38 66q0 90 11 215t21 218.5t8 212t-23 218.5q32 31 68 43t69.5 -2t50.5 -59z" />
    <glyph glyph-name="V" unicode="V" horiz-adv-x="1544" 
d="M1257 1397q-6 -39 -27 -164t-26 -154.5t-23.5 -127.5t-29 -135.5t-32 -122t-43.5 -144.5t-53 -144.5t-69 -177.5q-38 -15 -78.5 -45.5t-71 -56t-89 -51.5t-133.5 -37q-55 30 -94 63.5t-57.5 58t-50.5 54t-75 53.5l-123 240q-36 295 -52 444.5t-29.5 387t-8.5 462.5
q22 13 42 14t34.5 -6t29.5 -23t25 -31t24 -35t23 -31l27 -789q11 -40 26.5 -115t28 -134.5t36 -132t51.5 -125t74.5 -95.5t104.5 -59q27 14 45.5 24t36.5 22t28 19.5t23.5 23t19.5 23.5t19 30t19.5 34.5t23 44.5t27.5 53q60 92 95.5 194t49.5 202t22 196t24.5 211t46.5 213
q27 -7 44 -12.5t43.5 -17.5t41.5 -24.5t24.5 -33t5.5 -43.5z" />
    <glyph glyph-name="W" unicode="W" horiz-adv-x="1972" 
d="M1511 1434q38 -73 39.5 -153.5t-21.5 -156.5t-51 -150t-46.5 -161.5t-10.5 -163.5q-13 -63 -9.5 -123t-1 -147t-26.5 -148q-6 -18 -33.5 -18t-52.5 9l-24 9q-75 155 -127.5 257t-135.5 238.5t-163 236.5q-26 -6 -38 -22.5t-13 -35.5t-3 -37t-15 -31.5t-42 -15.5
q-12 -39 -37 -81.5t-50 -75t-51 -72t-40 -72.5t-18 -77t16 -85q-4 -15 -15 -69t-17.5 -76.5t-25.5 -59.5t-46 -63q-66 -21 -117 12.5t-78 92.5q-44 671 -164 1290l17 90q105 -32 161.5 -104.5t71 -169t16.5 -194t12.5 -208t43.5 -182.5h51q32 57 73.5 124.5t72.5 113.5
t84 125t77 114q63 -14 116 -52.5t93.5 -96t70.5 -111.5t67 -126.5t63 -113.5l22 -14q53 89 85 211t59 278.5t51 241.5q13 13 31 16.5t42 3.5t37 3z" />
    <glyph glyph-name="X" unicode="X" horiz-adv-x="1380" 
d="M254 283q-5 -6 -23.5 -28t-30 -34.5t-31 -30.5t-33.5 -23t-30.5 -5t-29.5 17.5t-23 49.5q-5 68 24 146.5t67.5 139t80.5 139.5t56 141q37 40 61 79q-186 194 -258 261q-8 14 -13 27.5t-6.5 30t-2 27t2.5 32t4.5 31t7 37t7.5 38.5q158 -32 375 -277q24 51 74 167t92 200
t92 154q56 -21 88 -71t2 -104q-85 -213 -221 -489q23 -24 135.5 -130t209 -207.5t165.5 -192.5q38 -93 33 -199q-4 -78 -31 -78q-10 0 -21 12q-87 72 -199.5 180t-188 186.5t-210.5 219.5q-189 -373 -225 -446z" />
    <glyph glyph-name="Y" unicode="Y" horiz-adv-x="1546" 
d="M1221 1255q-6 -6 -25 -14t-54 -23.5t-81.5 -40t-119 -74.5t-153.5 -116q-68 -81 -116.5 -180.5t-76.5 -211.5t-44.5 -207.5t-35.5 -222.5t-34 -202q-20 -13 -46 -16.5t-59 -3t-50 -2.5q4 27 25 183.5t30 213t33 165t53 193.5q-23 36 -78 118t-83.5 127.5t-61 114
t-45.5 126.5q-77 33 -114 114t-13 154q31 13 49 9t37 -25t32.5 -44t35.5 -47t46 -34q15 -19 30 -49t26 -58.5t24.5 -62t26 -59.5t30.5 -50.5t38 -36.5t48.5 -16t61.5 10q121 111 198.5 177.5t191 152t222.5 147.5q24 -16 41 -49t22.5 -66t2.5 -60t-14 -34z" />
    <glyph glyph-name="Z" unicode="Z" horiz-adv-x="1961" 
d="M1092 100q-101 12 -235.5 1.5t-237.5 -27t-232.5 -19t-220.5 24.5q-24 41 -26 82.5t10 73.5t38 77q90 72 189 171.5t182.5 191.5t173 184.5t194 178t212.5 145.5q13 -15 42.5 -24.5t46.5 -21.5t13 -40q-81 -65 -177 -163.5t-168.5 -179.5t-170 -172t-188.5 -151
q-17 -19 -22.5 -43.5t-3 -44t-1.5 -43.5q106 -20 229.5 -21t237 9.5t227.5 21t237 9.5t228 -21q-13 -53 -41 -84.5t-66.5 -43t-83 -14t-96 -1.5t-100 0t-99.5 -14.5t-91 -41.5zM1448 1362q-24 -48 -61 -70.5t-80 -23.5t-86.5 2t-91.5 -1t-82 -24q-525 -10 -951 -102l-35 42
q-60 83 -22 105q83 48 203.5 75.5t257 37t273 14t292.5 16.5t274 35q40 8 70.5 -25t38.5 -81z" />
    <glyph glyph-name="bracketleft" unicode="[" horiz-adv-x="894" 
d="M379 119q56 0 133 5q86 5 106 -11.5t55 -121.5q3 -8 4.5 -12.5l4 -12l4.5 -13.5q6 -20 -33 -33q-78 -27 -239 -16q-174 11 -224 55q-45 63 -60.5 157.5t-11 178t1.5 186.5t-24 172q21 99 23.5 213.5t-8.5 213.5t-22 213t-17 211.5t6 209.5q34 9 224 2t218 -24
q24 -14 42 -46.5t18 -64.5q2 -15 -18.5 -22t-52 -7t-69 0.5t-69.5 0t-52.5 -8t-19.5 -22.5q23 -225 42.5 -731t20.5 -527q1 -22 8.5 -73.5t8.5 -71.5z" />
    <glyph glyph-name="backslash" unicode="\" horiz-adv-x="1026" 
d="M680 170q41 -54 86 -76t119 0q10 56 -6.5 117.5t-48.5 119t-66 113t-63.5 119t-36.5 117.5q-40 99 -94 268.5t-108 312t-124 259.5q-12 -3 -28.5 -3t-28 1t-30.5 3q-41 8 -62.5 0t-4.5 -44q56 -186 137.5 -403t198.5 -505.5t160 -398.5z" />
    <glyph glyph-name="bracketright" unicode="]" horiz-adv-x="894" 
d="M375 119q-56 0 -133 5q-86 5 -106 -11.5t-55 -121.5q-8 -24 -13 -38q-6 -20 33 -33q78 -27 239 -16q173 11 223 55q45 63 60.5 157.5t11 178t-1.5 186.5t24 172q-21 99 -23.5 213.5t8.5 213.5t22.5 213t17.5 211.5t-6 209.5q-34 9 -224.5 2t-218.5 -24
q-24 -14 -41.5 -46.5t-17.5 -64.5q-2 -15 18.5 -22t52 -7t69 0.5t69.5 0t52.5 -8t19.5 -22.5q-17 -167 -28 -386t-20 -482t-16 -390q-1 -22 -8 -73.5t-8 -71.5z" />
    <glyph glyph-name="asciicircum" unicode="^" horiz-adv-x="937" 
d="M672 1206q-45 30 -70 69.5t-34.5 72t-23.5 62.5t-49.5 51.5t-99.5 29.5q-17 8 -62.5 -32t-91 -91t-89.5 -86.5t-58 -21.5q5 9 13.5 25t35.5 62t54 87t65.5 90.5t73.5 83t74.5 53t72.5 12.5q27 -6 54 -28t46 -49.5t34.5 -54t23.5 -44.5l8 -18q9 -20 20 -55.5t20.5 -80
t6 -83.5t-23.5 -54z" />
    <glyph glyph-name="underscore" unicode="_" horiz-adv-x="1439" 
d="M1294 -133q-465 -40 -979 0q-25 7 -76 14.5t-91 18t-68 28.5v70l1141 -14q5 -6 14 -13.5t15.5 -11.5t20.5 -13q21 -13 30.5 -20t18.5 -18t2 -21t-28 -20z" />
    <glyph glyph-name="grave" unicode="`" horiz-adv-x="632" 
d="M63 1782q37 9 63 9t49.5 -15t39.5 -33.5t33 -45t29.5 -50t28.5 -49.5t30 -42q13 -24 47.5 -72.5t54 -87.5t21.5 -77q-23 -33 -59 -26.5t-56 38.5q-29 46 -153 199q-128 156 -144 207q-10 37 16 45z" />
    <glyph glyph-name="a" unicode="a" horiz-adv-x="1896" 
d="M1364 68q-41 26 -66.5 74.5t-37.5 101t-26.5 104t-46.5 94.5t-85 62q-45 4 -124.5 -1t-148 -10t-132 -5t-95 17.5t-18.5 55.5q44 28 113 34t128.5 0.5t126 7t109.5 52.5q-43 110 -144.5 314.5t-140.5 298.5q-74 -98 -136 -219.5t-108 -244.5t-87 -243.5t-93.5 -254.5
t-107.5 -238v-80q-42 -3 -80 -2.5t-69.5 21t-43.5 61.5q59 136 272 657t341 788q54 -11 95 -40.5t69 -72.5t48 -85t44.5 -95.5t46.5 -86.5q55 -44 98.5 -105.5t72.5 -123t57 -122.5t66.5 -120.5t86.5 -100.5q-15 -45 6 -107t51 -117t51 -108.5t1 -96t-93 -64.5z" />
    <glyph glyph-name="b" unicode="b" horiz-adv-x="1384" 
d="M1051 1319q30 -55 32 -108t-17 -93.5t-51 -84t-65 -78.5t-63.5 -79t-42.5 -83q74 -68 99 -174t-5 -205q-56 -64 -106 -111t-117.5 -95t-144.5 -70.5t-158 -16.5q-38 -29 -80.5 -32.5t-98.5 3.5t-94 2l-67 80q-18 138 -12.5 292t25.5 278.5t40 269.5t30.5 265t-3.5 265
q14 25 36.5 28t42.5 -13l54 -60q9 -151 -6.5 -329t-36.5 -308t-31.5 -300.5t8.5 -307.5q276 -58 559 186q37 55 34.5 123.5t-34.5 116.5q-14 36 -44.5 59t-66 31t-74.5 15.5t-70 13t-52.5 23.5t-21.5 47t22 83q38 -20 77.5 -21t78 15.5t72 36t75 45.5t70.5 39q9 15 28.5 39
t33 43t25 42.5t10 49t-16.5 51.5q-14 12 -51 45t-57.5 49t-57 42.5t-65.5 37t-66.5 19.5t-76.5 3t-79 -24l-45 -45q-58 48 -47 172q124 38 250.5 5t232 -104.5t189.5 -172.5z" />
    <glyph glyph-name="c" unicode="c" horiz-adv-x="1388" 
d="M1112 1493q8 -13 9.5 -25t-3.5 -22t-12.5 -19.5t-21 -18t-25.5 -15.5t-29.5 -14.5t-29.5 -12t-29 -11t-25 -9.5q-165 0 -312.5 -86.5t-221.5 -223.5q-3 -68 -25.5 -175t-39.5 -185.5t-9 -173.5t55 -168q28 -56 70.5 -97t86.5 -64t105 -40.5t109.5 -25t117.5 -18.5
t113 -21q24 -21 21 -48t-21.5 -52t-48.5 -48q-45 31 -110 40.5t-121.5 5.5t-128 3.5t-125.5 36.5q-27 23 -82 65t-90.5 70t-81 71.5t-71 81t-42 86.5t-12.5 99q8 94 16 161t24.5 158t39 158t60 143.5t85.5 134t117 110t154 88.5q6 1 81 17.5t94.5 20t83.5 14.5t98 13t84.5 2
t92.5 -6z" />
    <glyph glyph-name="d" unicode="d" horiz-adv-x="1198" 
d="M801 195q-66 -12 -146.5 -45.5t-144 -67t-143 -66t-142.5 -43.5t-143 2q-25 112 -25 237t18 244.5t39.5 234t39.5 246.5t18 241q27 27 36.5 74t4.5 94.5t-5.5 97.5t6 88t39 61t93.5 21l328 -236q62 -64 103 -141t58.5 -162t23.5 -168t-1.5 -181t-17 -178t-22 -182
t-17.5 -171zM647 414q2 42 8.5 120t10 130.5t4.5 128.5t-5.5 130t-23.5 118.5t-45.5 111.5t-75.5 90.5t-110 71.5q-9 -38 -34 -131t-37 -143.5t-24.5 -128t-13.5 -144.5q-1 -47 -15 -134t-24.5 -154t-3 -147.5t42.5 -137.5q28 12 79 30t85.5 32t74.5 35.5t67 52t40 69.5z
" />
    <glyph glyph-name="e" unicode="e" horiz-adv-x="1343" 
d="M1137 1423q-65 -11 -122 -5.5t-120.5 14.5t-118 17t-116 2.5t-113.5 -28.5q-6 -37 -27.5 -97.5t-36 -108.5t-22 -102t13.5 -100.5t72 -80.5q29 -15 78.5 -19t93 -5t85 -9t64.5 -39.5t21 -89.5q-33 -22 -73.5 -23.5t-79.5 11t-81 29.5t-82.5 29t-78 12.5t-73 -24.5
t-63.5 -77q10 -44 4.5 -94t-24 -98t-30 -95.5t-14 -87t23.5 -72t83 -51.5q25 -8 52 -2.5t47 16.5t48.5 16.5t57.5 -3.5q22 -19 40.5 -41t32.5 -49.5t7 -53.5t-37 -44q-146 -6 -300 8.5t-257 50.5q0 91 7 182.5t26 195t32.5 175t46.5 191.5t47.5 171.5t55 188t51.5 172.5
q-12 63 12 115t72 108q63 -9 285.5 -51t366.5 -51q5 -11 21.5 -29t22.5 -34.5t-1 -39.5z" />
    <glyph glyph-name="f" unicode="f" horiz-adv-x="1255" 
d="M987 1378q-310 -43 -649 0q-7 3 -70 22t-88 44v72l758 -15q5 -11 18 -25t24.5 -25t19.5 -23t5.5 -25t-18.5 -25zM938 780q-7 -33 -43 -52.5t-86.5 -25.5t-118.5 -3t-127.5 10.5t-124.5 19.5q-10 13 -26.5 15t-39 -0.5t-34.5 -0.5l-37 -34q12 -107 2 -275t-17.5 -281.5
t15.5 -265.5q-5 -10 -12 -17t-14 -10.5t-18 -5.5t-17.5 -2t-19 0.5t-17.5 0.5l-86 84q0 272 -2.5 422.5t-19 384.5t-50.5 427q41 41 87.5 31.5t85 -48t48.5 -81.5q-10 -143 49 -229q63 -11 156 -13.5t171.5 0t150.5 2t111 -12.5t34 -40z" />
    <glyph glyph-name="g" unicode="g" horiz-adv-x="1337" 
d="M1047 311q-9 -34 -14.5 -93.5t-9.5 -107.5t-22 -104t-51 -94q-35 5 -56.5 -10t-30 -37.5t-25 -49.5t-39.5 -40q-86 -6 -164 -7.5t-151 12.5t-134 41.5t-112 78.5t-86 123q-83 287 -108 402q-105 484 32 753q66 129 186 215q30 6 84.5 21t97 26t97.5 21.5t100.5 10
t91 -9.5t83 -37t63.5 -73q4 -34 -7.5 -48t-32.5 -13.5t-43 2.5t-42 -6t-27 -32q-95 75 -311 17q-127 -68 -183.5 -205.5t-48.5 -283t17 -301.5q4 -50 6 -74q35 -178 62 -250q50 -138 147 -207q145 7 246.5 41t177.5 127q20 30 20.5 66.5t-21.5 69t-57 40.5q-221 -18 -311 72
q11 61 41 89.5t70 27t89 -11t97.5 -25.5t96.5 -17t85 16q16 -3 29.5 -12.5t21.5 -17.5t16.5 -26t11.5 -25.5t10 -29t8 -24.5z" />
    <glyph glyph-name="h" unicode="h" horiz-adv-x="1529" 
d="M1194 -27q-7 -14 -24 -18t-34 -2.5t-34 -1.5q-63 37 -94.5 95.5t-34 122.5t4 133.5t11.5 135t-2.5 121t-47 96t-114.5 56.5q-40 -12 -85 -11t-85 12.5t-85 20.5t-85.5 12.5t-86 -10.5t-87.5 -49q14 -132 0 -273.5t-42 -306t-36 -264.5q-11 -28 -39.5 -35t-55.5 0.5
t-50 20.5q-26 64 -31 153t4 161.5t24 179t19 165.5q2 116 24.5 280t36.5 313t1 276q8 11 21.5 15t25 3.5t30.5 -2.5t29 -2q39 -28 57.5 -66t18.5 -78.5t-5.5 -84.5t-11 -87t-3 -81.5t24 -73.5t65.5 -59q65 10 146 -1.5t141 -27t133 -11.5t133 40q8 71 8.5 151.5t-2 127.5
t-11 150.5t-10.5 139.5q10 24 24.5 31.5t30 1.5t30 -15.5t32 -20.5t29.5 -13q17 -46 76 -93q17 -158 16 -346t-11 -337.5t-9.5 -327t20.5 -316.5z" />
    <glyph glyph-name="i" unicode="i" horiz-adv-x="643" 
d="M381 23q-12 -29 -42 -39t-58.5 -4.5t-47.5 18.5l-43 63q-56 786 -190 1434q63 141 163 13q50 -64 89 -162q-8 -60 3.5 -126t43 -164.5t39.5 -127.5q5 -106 19 -292t21 -331t3 -282z" />
    <glyph glyph-name="j" unicode="j" horiz-adv-x="1124" 
d="M119 174q21 -35 35 -66.5t15.5 -41t15 -22t30.5 -19t64 -23.5q52 -19 135.5 -28.5t165 5t98.5 60.5q32 88 59.5 158t36 91t15 43.5t12.5 57.5q31 313 65 1036q-12 36 -53.5 45t-116.5 -24q-23 -13 -26.5 -53.5t4.5 -90.5t9.5 -109t-11.5 -108l-35 -313q-12 -23 -18 -91.5
t-10.5 -145t-26.5 -180t-60 -187.5q-29 5 -49.5 -7.5t-58.5 1.5q-40 12 -64 30.5t-35.5 45t-16 51t-11 65.5t-15.5 72q-48 9 -80.5 -2t-47.5 -33t-21.5 -55t-6 -61t2 -59t0.5 -42z" />
    <glyph glyph-name="k" unicode="k" horiz-adv-x="1284" 
d="M956 1286q-46 -27 -70 -48.5t-27.5 -35.5t-0.5 -25.5t5.5 -22t-3 -22.5t-31.5 -30t-75 -41l-426 -293q17 -3 68 -35t121.5 -90t142.5 -127.5t139.5 -157t103.5 -168.5q-7 -14 -45.5 -22.5t-84.5 -13.5t-54 -7q-83 111 -211 249.5t-205 246.5q-12 -85 -22 -167t-13 -125
t-9 -86t-11 -62t-18 -40t-30 -33.5t-48 -29.5q-23 -10 -37.5 87.5t-21.5 214t-11 128.5l-31 1031q3 24 34.5 47.5t65 27.5t56.5 -20q-4 -85 10.5 -333t5.5 -349q13 -17 -2 -44q-3 -6 -1 -6q2 -1 9 1q72 31 149.5 92t188 167.5t131.5 125.5l220 196q9 -12 29 -30.5t32 -32.5
t20 -32t-2.5 -39.5t-40.5 -45.5z" />
    <glyph glyph-name="l" unicode="l" horiz-adv-x="1247" 
d="M1016 45q-36 -49 -115 -49q-26 39 -57 43.5t-60.5 -12l-59 -33t-61 -12.5t-57.5 43q-51 10 -116 4t-119 -18.5t-122.5 -18.5t-125.5 4l-86 180q-11 174 -6 367t17.5 344.5t12 342.5t-23.5 361q33 25 59 28.5t45.5 -12.5t33.5 -35t32 -49.5t31 -45.5l26 -1186
q71 -29 169.5 -38.5t184 -6t190 0t179.5 -21.5q1 -2 17.5 -33.5t22.5 -48t5.5 -46t-16.5 -52.5z" />
    <glyph glyph-name="m" unicode="m" horiz-adv-x="2168" 
d="M1796 61q-34 -6 -64.5 8.5t-53 43t-37.5 55t-27 57.5q-18 88 -39.5 221.5t-38.5 232.5t-44 213.5t-69.5 219t-101.5 195.5q-42 -9 -68.5 -42t-36.5 -69.5t-25.5 -84t-33.5 -73.5q-12 -87 -42.5 -187t-62 -176.5t-62 -176t-42.5 -185.5q-9 -25 -28 -37.5t-41 -12t-42 6.5
t-34 17q-46 67 -97.5 171.5t-88 185t-97.5 167.5t-133 141q-28 -354 -72.5 -620t-134.5 -537q-70 -62 -180 35q18 125 57 306.5t69 314.5t48 304t6 318l62 250l129 -16q47 -80 124 -223t146.5 -263t142.5 -223q80 141 153 314t150.5 378.5t129.5 325.5q58 12 96.5 -6
t59.5 -55t37 -77t41 -77t60 -51q20 -70 49.5 -156t54.5 -155.5t55 -156t51 -158t42.5 -160.5t30 -163t12 -167.5t-9.5 -172.5z" />
    <glyph glyph-name="n" unicode="n" 
d="M1305 1677q-21 -117 -31 -273.5t-13 -277t-22.5 -264.5t-58.5 -256q-10 -33 -10 -72t9 -77.5t12.5 -77.5t1 -71t-24.5 -57.5t-64 -37.5q-58 114 -145.5 237.5t-165.5 215.5t-176.5 215.5t-165.5 222.5q-12 11 -36.5 35.5t-40 38.5t-39.5 26.5t-48 12.5
q-23 -71 -35.5 -149t-22 -181.5t-16.5 -153.5q33 -172 -29 -254l-22 -334q-27 -14 -45.5 -11.5t-27.5 11.5t-16 27.5t-10.5 35.5t-10.5 35.5t-17 28.5q78 581 90 1160q5 8 14.5 22t15.5 22t15.5 19t18.5 16.5t21.5 10t28 4t33.5 -5.5q79 -119 276.5 -351.5t289.5 -384.5
q16 -12 33 -29.5t30 -31.5t31.5 -38.5t27.5 -37t29.5 -41.5t26.5 -37q29 29 47.5 62.5t26.5 77.5t10 69.5t4 79.5q3 81 14 211t18.5 220.5t6.5 204.5t-17 204q25 13 58 18.5t68.5 -3.5t52.5 -36z" />
    <glyph glyph-name="o" unicode="o" 
d="M1122 311q-83 -77 -174.5 -130.5t-190.5 -82t-203.5 -17.5t-201.5 64q-91 70 -153.5 162t-94 186.5t-43 209t-8 216t18.5 222.5q4 33 19.5 64t42.5 61t48 49.5t56.5 49t48.5 40.5q42 -2 106.5 11t109.5 22.5t96 -6.5t85 -68q143 -55 255 -166.5t183 -255.5
q0 -53 18.5 -127t36 -136t27.5 -128.5t-9 -128.5t-73 -111zM983 809q-25 55 -51.5 103.5t-62.5 99t-74 89t-86 70t-99.5 46.5t-113 13.5t-127.5 -24.5q-48 -30 -78.5 -85t-36.5 -113q-65 -187 1.5 -389t213.5 -349q129 -23 261.5 22.5t236.5 135.5q41 36 52 87t1 94.5
t-23.5 103t-13.5 96.5z" />
    <glyph glyph-name="p" unicode="p" horiz-adv-x="1320" 
d="M934 1276q45 -87 55 -195t-17.5 -213.5t-88.5 -181.5q-67 -8 -117 -12.5t-118.5 -4t-120 10t-103.5 33t-86 61.5q6 56 38 77t78.5 13t103.5 -19.5t113 -20.5t109 10q126 175 66 294q-30 96 -119 185t-197 153q-19 2 -61 7t-61.5 6.5t-63 3.5t-65.5 -2
q-39 -29 -55.5 -73.5t-25.5 -102t-22 -88.5q-48 -28 -61 58q-14 89 12 200q5 25 12 43q28 48 64.5 85t75.5 42q209 -6 366 -98.5t289 -270.5zM139 -264q-46 -6 -73 8.5t-36 44t-11.5 61t-6 70t-12.5 60.5q17 189 25.5 334t7 330t-18.5 345q-11 29 -14.5 65.5t2 71t28 56.5
t58.5 20q36 -134 54.5 -284t20 -309.5t-2 -289t-11.5 -306.5t-10 -277z" />
    <glyph glyph-name="q" unicode="q" horiz-adv-x="1677" 
d="M1200 1327q11 -52 31.5 -138.5t35.5 -148.5t30 -148t20 -151.5t0.5 -143.5t-24 -140t-58.5 -125t-98 -113q-93 -6 -172 -26q-16 -3 -15 -48.5t6 -87.5t-10 -61q-37 -31 -69 -44t-54.5 -9t-41 18t-30.5 35t-22 43t-16 41t-12 30.5t-11 10.5q-74 -20 -119.5 -30
t-105.5 -15.5t-106.5 2.5t-103.5 31t-116 63q-44 206 -41.5 439.5t49 462t121.5 364.5q32 59 103 98.5t159 54.5t188.5 6t192 -39.5t169.5 -90.5t120 -140zM1090 588q-9 134 -16 211t-23.5 188t-45 202.5t-71.5 174.5q-37 36 -94.5 49.5t-113 7.5t-112 -21t-91.5 -29.5
t-52 -24.5q-106 -309 -141 -462q-84 -362 4 -581q151 -13 379 25q8 2 3 30.5t-14 64.5t-7.5 71t23.5 49t79 -2q49 -17 76 -48.5t31 -59.5t10.5 -48t19.5 -18q32 5 57.5 22.5t40 37.5t27.5 53.5t18 53.5t13 54z" />
    <glyph glyph-name="r" unicode="r" horiz-adv-x="1220" 
d="M983 1227q20 -118 -18 -235.5t-119 -213.5q-25 14 -41 5t-22 -22.5t-15 -33t-20 -27.5q-40 -30 -143.5 -72t-149.5 -85q-54 0 -78 -33q151 -310 418 -637q0 -21 -10 -35t-21 -19t-32.5 -12.5t-29.5 -11.5q-93 87 -165.5 190t-148.5 235.5t-122 199.5q-40 -11 -59.5 -44
t-24 -76t-7 -88t-17.5 -88.5t-47 -68.5q-35 -12 -54 -1t-33.5 40.5t-23.5 38.5q4 38 18.5 166t20.5 178t19 161t23 176.5t24.5 158.5t30 173.5t32.5 158.5q9 23 22.5 28.5t24 -0.5t26.5 -16t25 -12q18 -56 19 -133.5t-8 -145.5t-19 -159t-10 -154q46 -28 97 -31.5t102.5 15
t91 40t86.5 54.5q22 31 71.5 85t79.5 90.5t48.5 92t2.5 110.5q-34 52 -70.5 97.5t-83.5 90t-100 69.5t-104 22q-29 9 -59.5 5.5t-64.5 -5t-62.5 0t-54.5 21t-40 58.5q20 49 53.5 66.5t71 8.5t81 -21.5t84 -24t81.5 1.5q34 -22 112.5 -67t122.5 -73t99.5 -80t89.5 -112z" />
    <glyph glyph-name="s" unicode="s" horiz-adv-x="1376" 
d="M1087 1358q-51 -5 -114.5 12.5t-115 43.5t-109 44.5t-104.5 20.5t-94 -34t-83 -114q0 -41 -18 -82t-41 -69.5t-44.5 -67t-28.5 -74t7 -90.5q34 -53 90.5 -114.5t109.5 -110t108 -109t93 -116.5t56.5 -128.5t5.5 -148.5q-35 -14 -63 -46.5t-44.5 -69.5t-35.5 -78.5
t-36.5 -74.5t-48 -57.5t-69.5 -27.5t-102 16q-37 22 -99.5 52.5t-104.5 53t-86 55.5t-67.5 77t-25.5 100q47 5 103.5 -16t102 -49.5t106.5 -53t114 -24.5q14 26 39.5 55.5t48 51t47 51.5t36 56t14.5 64.5t-16 77.5q-28 49 -69.5 100.5t-83.5 92.5t-87.5 88.5t-83.5 89.5
t-69 93.5t-47 103t-14 116t26 133.5q9 16 29.5 54t31.5 57.5t32.5 55.5t36.5 56.5t39 51t44 48.5t48 39.5t55 33t60.5 20.5t68.5 10q105 4 275 -95q133 -78 191 -150q52 -65 -8 -73q-3 -1 -6 -1z" />
    <glyph glyph-name="t" unicode="t" horiz-adv-x="1390" 
d="M1126 1192q-19 -25 -42 -41.5t-50 -21t-49 17.5q-79 55 -186 92.5t-208 59t-202.5 48t-196 77.5t-161.5 130q37 40 94 43.5t109 -15t123 -43.5t116 -30l619 -168q9 -15 15.5 -35t8.5 -34.5t5 -41t5 -38.5zM412 -160q-10 -3 -26 -15.5t-27.5 -21.5t-26.5 -8t-27 19l-61 61
q22 110 22.5 247t-9 264t-16 258.5t7.5 270.5t56 259q11 -8 39.5 -19.5t46 -27t21.5 -42.5v-1245z" />
    <glyph glyph-name="u" unicode="u" horiz-adv-x="1644" 
d="M1155 760q-14 -227 -94 -456.5t-213 -409.5q-51 3 -101.5 18.5t-92 35.5t-88 54t-79.5 63t-77.5 74.5t-71.5 76t-71.5 81t-67.5 76.5q-96 271 -147.5 566.5t-51.5 578.5q26 48 63.5 60.5t70 -5.5t57 -55t26.5 -80q3 -66 5 -177.5t4.5 -189.5t10 -183t25.5 -187.5
t47.5 -171.5t79 -167t117.5 -143q28 2 71.5 -16.5t81.5 -37t76.5 -27.5t68 16.5t44.5 91.5q223 485 172 1057q5 5 13 14t14 15t14.5 13.5t15.5 13t16.5 10.5t18.5 7t20.5 1.5t22.5 -3.5q6 -41 22 -117t25.5 -131.5t14 -123.5t-10.5 -129.5t-51 -112.5z" />
    <glyph glyph-name="v" unicode="v" horiz-adv-x="1488" 
d="M1223 1597q19 -49 7.5 -96.5t-35 -80t-41 -73t-9.5 -73.5q-95 -234 -148 -491t-82 -566l-16 -174q-52 4 -99.5 28.5t-80.5 57.5t-67.5 85t-55.5 93.5t-51 101.5t-47 91q-58 66 -109.5 158.5t-91.5 185t-80.5 185t-94 183.5t-114.5 156v119q46 9 79 -9.5t53.5 -54t37 -74
t41.5 -76t57 -54.5q81 -123 213.5 -393.5t221.5 -403.5q38 64 62.5 152t35 163t28 170t40.5 162q23 68 49 171.5t44.5 178.5t53.5 162.5t82 149.5q83 0 117 -134z" />
    <glyph glyph-name="w" unicode="w" horiz-adv-x="2682" 
d="M2126 1612q-98 -844 -252 -1473q-75 -50 -180 -35q-67 99 -140.5 233.5t-127 242t-131 237t-156.5 230.5q-45 6 -86 -38t-41 -87q-75 -137 -148 -321.5t-144 -368t-138 -308.5q-50 -22 -84.5 -15.5t-52.5 24.5t-31.5 52t-21 65.5t-21 65.5t-31.5 52q-15 126 -57 280
t-84 273.5t-78 275t-41 291.5q38 52 106 37q50 -47 75.5 -117.5t29.5 -133.5t11 -148.5t20 -139.5q36 -67 66.5 -171.5t64.5 -200.5t84 -166q64 113 136 265.5t124 272t126.5 264t151.5 257.5q31 -2 61 -16.5t58 -40.5t48.5 -48.5t49.5 -58t43 -51.5q35 -53 71.5 -130
t66 -143t66 -134t87 -126t113.5 -96q28 57 43.5 120t27 150t19.5 125q32 95 56 240.5t52.5 279t79.5 234.5h109z" />
    <glyph glyph-name="x" unicode="x" horiz-adv-x="1536" 
d="M1079 -68q-12 -12 -13.5 -37t1 -41t-8 -26t-40.5 8l-125 33q-54 154 -135.5 327t-165.5 302q-18 -24 -57.5 -81t-62.5 -88.5t-63.5 -81t-74 -80t-79 -61.5t-91.5 -49q-32 59 -35 106.5t19 89t51 77t69.5 89t65.5 105.5l119 260q-44 67 -110.5 157t-111.5 152.5t-93 142.5
t-81.5 168.5t-52.5 188.5q19 -2 51 1.5t55 6.5t50 -6.5t47 -35.5l387 -672l383 563q20 7 57 4.5t57 -5.5t57 -11t58 -11q16 -26 18.5 -46.5t-11.5 -38t-34 -30.5t-55 -30q-57 -41 -105.5 -94.5t-87.5 -115t-69.5 -117.5t-70.5 -130.5t-72 -126.5z" />
    <glyph glyph-name="y" unicode="y" horiz-adv-x="1228" 
d="M950 1522q-16 -49 -56.5 -118t-64 -102.5t-81.5 -113.5q-48 -41 -85.5 -80t-91 -103.5t-73.5 -86.5q3 -92 -10.5 -214.5t-29 -217.5t-23.5 -219.5t7 -221.5q-8 -9 -19 -15t-18.5 -9.5t-23 -5t-21 -1.5h-25h-22.5q-23 25 -27 57.5t3.5 59.5t16 64t7.5 63q-6 93 4.5 221.5
t20.5 234t10.5 219.5t-32.5 221t-103 196l-197 325q-2 74 48 70q45 -3 99 -53q17 -16 25 -29q27 -91 108.5 -239.5t104.5 -202.5q17 -10 27.5 -33t15.5 -42.5t22.5 -31.5t47.5 -6l367 442q5 -1 27.5 0.5t33.5 -4.5t8 -24z" />
    <glyph glyph-name="z" unicode="z" horiz-adv-x="1554" 
d="M1083 147q-110 -14 -198.5 -10.5t-189 11t-186 15t-191 2t-203.5 -27.5q9 71 30 126.5t47 89t59 67.5t63.5 60t62.5 67.5t53 89.5q36 82 83.5 159.5t92.5 138t90 122.5t88 139t74 162l-31 51q-61 18 -130 17t-130.5 -17t-130.5 -31t-129.5 -24.5t-126.5 3t-123 50.5
q-6 23 -6 45.5t3.5 38.5t13.5 34.5t16.5 28t19 25.5t15.5 20q85 23 178.5 27t177.5 -3.5t168.5 -15.5t179 -3.5t181.5 28.5q7 -46 -4 -82.5t-26 -56.5t-23 -58.5t3 -88.5q-68 -166 -162 -326.5t-206.5 -333.5t-177.5 -291l69 -69l641 -11q8 -49 0 -103.5t-35 -64.5z" />
    <glyph glyph-name="braceleft" unicode="{" horiz-adv-x="1019" 
d="M590 160q36 -16 76 -24t65 -9t47.5 -7t31.5 -20.5t9.5 -47.5t-12.5 -89q-8 -34 -89 -37.5t-174.5 21t-135.5 61.5q-167 237 -193 684q-1 20 -37 30.5t-72 20t-36 27.5q1 18 72.5 115.5t72.5 113.5q6 285 15 367q16 140 65 231q12 22 84.5 48t171.5 40.5t170 2.5
q24 -4 44.5 -58t20.5 -92q3 -20 -42 -29t-102.5 -11t-113 -23t-69.5 -62q-40 -120 -46 -220t7 -202q1 -15 -61 -69t-60 -70q3 -20 35.5 -48.5t65.5 -57t36 -48.5q22 -162 29 -290q1 -22 62.5 -124.5t62.5 -123.5z" />
    <glyph glyph-name="bar" unicode="|" horiz-adv-x="493" 
d="M291 264q-3 -14 -5.5 -57t-7.5 -82t-17 -80.5t-40 -67.5t-69 -28q-35 51 -48.5 153.5t-10 201.5t0.5 208t-20 164q8 151 2 515.5t12 463.5q17 3 40.5 12.5t39 15t31 8t23 -8t7.5 -33.5q23 -167 33.5 -420.5t15.5 -538.5t13 -426z" />
    <glyph glyph-name="braceright" unicode="}" horiz-adv-x="911" 
d="M291 160q-36 -16 -76 -24t-65 -9t-47.5 -7t-31.5 -20.5t-9.5 -47.5t12.5 -89q8 -34 89 -37.5t174.5 21t135.5 61.5q167 237 193 684q1 20 37 30.5t72 20t36 27.5q-1 18 -72.5 115.5t-72.5 113.5q-6 285 -15 367q-16 140 -65 231q-12 22 -84.5 48t-171.5 40.5t-170 2.5
q-24 -4 -45 -58.5t-21 -91.5q-3 -20 42 -29t103 -11t113.5 -23t69.5 -62q40 -120 46 -220t-7 -202q-1 -15 61 -69t60 -70q-3 -20 -35.5 -48.5t-66 -57t-36.5 -48.5q-20 -149 -28 -290q-1 -22 -62.5 -124.5t-62.5 -123.5z" />
    <glyph glyph-name="asciitilde" unicode="~" horiz-adv-x="987" 
d="M852 1497q-20 -73 -52.5 -107.5t-68.5 -35.5t-85 16t-95 42t-106.5 49t-110.5 30q-17 8 -55 -11t-75 -44.5t-73.5 -40t-50.5 -0.5q6 10 17 27.5t45.5 60t69 73t83.5 51.5t94 11q44 -9 108.5 -36t106.5 -50l43 -23q42 -37 176 -7q39 9 39 5q0 -2 -10 -10z" />
    <glyph glyph-name="nbspace" unicode="&#xa0;" horiz-adv-x="1589" 
 />
    <glyph glyph-name="copyright" unicode="&#xa9;" horiz-adv-x="1202" 
d="M659 -29q66 -124 66.5 -260t-74.5 -258q-17 -14 -42 -46.5t-49.5 -54t-55.5 -26.5q-7 -29 -31.5 -42.5t-62.5 -20.5t-54 -15q-161 22 -245 115q-37 43 -58 96t-26 118t-4 114.5t6 127.5t6 115q14 110 103.5 185t209.5 110q27 -7 83.5 -15.5t92.5 -16t73.5 -32.5t53.5 -67
q-4 -2 -15 -7t-16 -7t-17.5 -4t-20.5 2l-9 8q-7 -24 4 -43t43 -44t39 -32zM594 -498q123 143 0 412q-8 38 -27.5 57t-45 21.5t-51.5 0t-56 -2.5t-49 10q-70 -10 -115 -106q-41 -146 57 -244q26 -6 69 4t70 4q27 -9 36 -41t-7 -57q-74 -20 -156.5 1.5t-130.5 80.5l13 8
q-67 182 -41 284q6 27 24 46.5t47 30t47.5 14.5t49.5 8q-4 16 3 23t17.5 7t20 6t8.5 21q-1 16 -9 23t-21.5 5.5t-27 -5.5t-29.5 -9t-24 -6q-70 -21 -109.5 -68t-49 -112.5t-8 -126.5t8 -139.5t3.5 -120.5q23 -59 70 -97.5t118 -70.5q26 -9 50.5 -9.5t47.5 7t42 16.5t42 26.5
t38 31t38.5 35t36.5 32.5z" />
    <glyph glyph-name="Agrave" unicode="&#xc0;" horiz-adv-x="1896" 
d="M1364 68q-41 26 -66.5 74.5t-37.5 101t-26.5 104t-46.5 94.5t-85 62q-45 4 -124.5 -1t-148 -10t-132 -5t-95 17.5t-18.5 55.5q44 28 113 34t128.5 0.5t126 7t109.5 52.5q-43 110 -144.5 314.5t-140.5 298.5q-74 -98 -136 -219.5t-108 -244.5t-87 -243.5t-93.5 -254.5
t-107.5 -238v-80q-42 -3 -80 -2.5t-69.5 21t-43.5 61.5q59 136 272 657t341 788q54 -11 95 -40.5t69 -72.5t48 -85t44.5 -95.5t46.5 -86.5q55 -44 98.5 -105.5t72.5 -123t57 -122.5t66.5 -120.5t86.5 -100.5q-15 -45 6 -107t51 -117t51 -108.5t1 -96t-93 -64.5zM383 2056
q57 -17 91.5 -52.5t66 -90.5t53.5 -80q48 -84 108 -131q3 -28 -17 -50t-52 -28q-54 47 -101.5 112t-98.5 146.5t-83 124.5q-5 18 5 34t28 15z" />
    <glyph glyph-name="Aacute" unicode="&#xc1;" horiz-adv-x="1896" 
d="M1364 68q-41 26 -66.5 74.5t-37.5 101t-26.5 104t-46.5 94.5t-85 62q-45 4 -124.5 -1t-148 -10t-132 -5t-95 17.5t-18.5 55.5q44 28 113 34t128.5 0.5t126 7t109.5 52.5q-43 110 -144.5 314.5t-140.5 298.5q-74 -98 -136 -219.5t-108 -244.5t-87 -243.5t-93.5 -254.5
t-107.5 -238v-80q-42 -3 -80 -2.5t-69.5 21t-43.5 61.5q59 136 272 657t341 788q54 -11 95 -40.5t69 -72.5t48 -85t44.5 -95.5t46.5 -86.5q55 -44 98.5 -105.5t72.5 -123t57 -122.5t66.5 -120.5t86.5 -100.5q-15 -45 6 -107t51 -117t51 -108.5t1 -96t-93 -64.5zM1006 2068
q9 -59 -7.5 -105t-52.5 -98.5t-49 -82.5q-54 -80 -70 -156q-27 -14 -53.5 -5.5t-46.5 34.5q18 69 55.5 140t89.5 153t76 129q12 13 32 11t26 -20z" />
    <glyph glyph-name="Acircumflex" unicode="&#xc2;" horiz-adv-x="1896" 
d="M1364 68q-41 26 -66.5 74.5t-37.5 101t-26.5 104t-46.5 94.5t-85 62q-45 4 -124.5 -1t-148 -10t-132 -5t-95 17.5t-18.5 55.5q44 28 113 34t128.5 0.5t126 7t109.5 52.5q-43 110 -144.5 314.5t-140.5 298.5q-74 -98 -136 -219.5t-108 -244.5t-87 -243.5t-93.5 -254.5
t-107.5 -238v-80q-42 -3 -80 -2.5t-69.5 21t-43.5 61.5q59 136 272 657t341 788q54 -11 95 -40.5t69 -72.5t48 -85t44.5 -95.5t46.5 -86.5q55 -44 98.5 -105.5t72.5 -123t57 -122.5t66.5 -120.5t86.5 -100.5q-15 -45 6 -107t51 -117t51 -108.5t1 -96t-93 -64.5zM938 1475
q-45 30 -70 69.5t-34 71.5t-23 62.5t-49.5 51.5t-99.5 29q-13 5 -45.5 -20.5t-70 -64.5t-75 -77.5t-68.5 -59.5t-43 -9q5 9 13.5 25.5t35.5 62t54.5 87t66 90.5t73.5 83t74.5 53.5t72.5 12.5q27 -6 54.5 -28t46.5 -49.5t34 -54.5t23 -45l7 -18q9 -20 20 -55.5t20.5 -79.5
t6 -83t-23.5 -54z" />
    <glyph glyph-name="Atilde" unicode="&#xc3;" horiz-adv-x="1896" 
d="M1364 68q-41 26 -66.5 74.5t-37.5 101t-26.5 104t-46.5 94.5t-85 62q-45 4 -124.5 -1t-148 -10t-132 -5t-95 17.5t-18.5 55.5q44 28 113 34t128.5 0.5t126 7t109.5 52.5q-43 110 -144.5 314.5t-140.5 298.5q-74 -98 -136 -219.5t-108 -244.5t-87 -243.5t-93.5 -254.5
t-107.5 -238v-80q-42 -3 -80 -2.5t-69.5 21t-43.5 61.5q59 136 272 657t341 788q54 -11 95 -40.5t69 -72.5t48 -85t44.5 -95.5t46.5 -86.5q55 -44 98.5 -105.5t72.5 -123t57 -122.5t66.5 -120.5t86.5 -100.5q-15 -45 6 -107t51 -117t51 -108.5t1 -96t-93 -64.5zM1090 1673
q-20 -73 -52.5 -107.5t-68.5 -35.5t-85.5 16t-95 42t-106.5 49t-111 30q-17 8 -55 -11t-75 -44.5t-73.5 -40t-50.5 -0.5q6 10 17 27.5t45.5 60t69.5 73t84 51.5t94 11q44 -9 108.5 -36t106.5 -50l43 -22q42 -37 175 -8q39 9 40 6t-10 -11z" />
    <glyph glyph-name="Adieresis" unicode="&#xc4;" horiz-adv-x="1896" 
d="M1364 68q-41 26 -66.5 74.5t-37.5 101t-26.5 104t-46.5 94.5t-85 62q-45 4 -124.5 -1t-148 -10t-132 -5t-95 17.5t-18.5 55.5q44 28 113 34t128.5 0.5t126 7t109.5 52.5q-43 110 -144.5 314.5t-140.5 298.5q-74 -98 -136 -219.5t-108 -244.5t-87 -243.5t-93.5 -254.5
t-107.5 -238v-80q-42 -3 -80 -2.5t-69.5 21t-43.5 61.5q59 136 272 657t341 788q54 -11 95 -40.5t69 -72.5t48 -85t44.5 -95.5t46.5 -86.5q55 -44 98.5 -105.5t72.5 -123t57 -122.5t66.5 -120.5t86.5 -100.5q-15 -45 6 -107t51 -117t51 -108.5t1 -96t-93 -64.5zM553 1737
q2 -22 -5 -38.5t-16 -25.5t-29.5 -16.5t-33 -10.5t-39.5 -8q-17 -1 -30.5 4t-21.5 12.5t-15 22t-10 23.5t-7.5 26.5t-5.5 22.5q-9 91 54 95q51 4 110 -43q39 -31 49 -64zM901 1632q-21 -16 -41 -18.5t-39.5 9.5t-33 24.5t-33.5 35.5q-12 16 -15 32t5 32t14.5 25.5t21.5 25.5
t19 21q74 59 112 2q30 -45 19 -118q-8 -47 -29 -71z" />
    <glyph glyph-name="Aring" unicode="&#xc5;" horiz-adv-x="1896" 
d="M1364 68q-41 26 -66.5 74.5t-37.5 101t-26.5 104t-46.5 94.5t-85 62q-45 4 -124.5 -1t-148 -10t-132 -5t-95 17.5t-18.5 55.5q44 28 113 34t128.5 0.5t126 7t109.5 52.5q-43 110 -144.5 314.5t-140.5 298.5q-74 -98 -136 -219.5t-108 -244.5t-87 -243.5t-93.5 -254.5
t-107.5 -238v-80q-42 -3 -80 -2.5t-69.5 21t-43.5 61.5q59 136 272 657t341 788q54 -11 95 -40.5t69 -72.5t48 -85t44.5 -95.5t46.5 -86.5q55 -44 98.5 -105.5t72.5 -123t57 -122.5t66.5 -120.5t86.5 -100.5q-15 -45 6 -107t51 -117t51 -108.5t1 -96t-93 -64.5zM754 1743
q17 50 -26 85q-38 32 -78 18q-53 -18 -44 -103q4 -10 6.5 -28.5t5.5 -27.5t16 -15.5t38 -4.5q9 2 20 3.5t16.5 2.5t14 2.5t11.5 3.5t9 5.5t6.5 8.5t4 12t1.5 16t-1 22zM758 1622q-24 -18 -48 -22.5t-42 0t-41.5 22.5t-36.5 31.5t-37 40.5q-14 19 -18 38.5t-1.5 34t14.5 33
t20.5 28.5t26 27.5t21.5 22.5q96 77 149 12q40 -51 35 -146q-5 -81 -42 -122z" />
    <glyph glyph-name="Ccedilla" unicode="&#xc7;" horiz-adv-x="1388" 
d="M332 -356q42 34 86.5 46t78.5 11.5t67 4t63.5 32t56.5 86.5q15 19 -51 143q-105 4 -172 39q-27 23 -82 65t-90.5 70t-81 71.5t-71 81t-42 86.5t-12.5 99q8 94 16 161t24.5 158t39 158t60 143.5t85.5 134t117 110t154 88.5q6 1 81 17.5t94.5 20t83.5 14.5t98 13t84.5 2
t92.5 -6q8 -13 9.5 -25t-3.5 -22t-12.5 -19.5t-21 -18t-25.5 -15.5t-29.5 -14.5t-29.5 -12t-29 -11t-25 -9.5q-165 0 -312.5 -86.5t-221.5 -223.5q-3 -68 -25.5 -175t-39.5 -185.5t-9 -173.5t55 -168q50 -103 152 -158q1 1 3 2t3 2q6 -6 14 -16q56 -26 128.5 -42
t162.5 -29.5t139 -24.5q24 -21 21 -48t-21.5 -52t-48.5 -48q-41 29 -90.5 38t-118.5 9q143 -194 94 -280q-13 -24 -42 -43.5t-60.5 -29.5t-61.5 -17t-49 -9l-20 -2q-57 -10 -154 2t-112 56z" />
    <glyph glyph-name="Egrave" unicode="&#xc8;" horiz-adv-x="1372" 
d="M1139 1423q-66 -11 -123 -5.5t-120.5 14.5t-118.5 17t-116.5 2.5t-113.5 -28.5q-6 -37 -27 -97.5t-36 -108.5t-22 -102t13.5 -100.5t71.5 -80.5q29 -15 78.5 -19t93 -5t85 -9t64.5 -39.5t21 -89.5q-32 -22 -72.5 -23.5t-80 11t-81.5 29.5t-82 29t-78 12.5t-73.5 -24.5
t-63.5 -77q10 -44 4.5 -94t-24 -98t-30 -95.5t-14 -87t23.5 -72t83 -51.5q26 -8 53 -2.5t47 16.5t48.5 16.5t56.5 -3.5q22 -19 40.5 -41t32.5 -49.5t7 -53.5t-37 -44q-146 -6 -299.5 8.5t-257.5 50.5q0 106 13 224t27.5 205t49.5 225t52.5 200.5t64.5 220.5t59 201
q-11 63 13.5 115t72.5 108q58 -8 282 -50.5t370 -51.5q5 -11 21 -29t22.5 -34.5t-0.5 -39.5zM383 2097q57 -17 91.5 -52.5t66 -90.5t53.5 -80q48 -84 108 -131q3 -28 -17 -50t-52 -28q-54 47 -101.5 112t-98.5 146.5t-83 124.5q-5 18 5 34t28 15z" />
    <glyph glyph-name="Eacute" unicode="&#xc9;" horiz-adv-x="1372" 
d="M1139 1423q-66 -11 -123 -5.5t-120.5 14.5t-118.5 17t-116.5 2.5t-113.5 -28.5q-6 -37 -27 -97.5t-36 -108.5t-22 -102t13.5 -100.5t71.5 -80.5q29 -15 78.5 -19t93 -5t85 -9t64.5 -39.5t21 -89.5q-32 -22 -72.5 -23.5t-80 11t-81.5 29.5t-82 29t-78 12.5t-73.5 -24.5
t-63.5 -77q10 -44 4.5 -94t-24 -98t-30 -95.5t-14 -87t23.5 -72t83 -51.5q26 -8 53 -2.5t47 16.5t48.5 16.5t56.5 -3.5q22 -19 40.5 -41t32.5 -49.5t7 -53.5t-37 -44q-146 -6 -299.5 8.5t-257.5 50.5q0 106 13 224t27.5 205t49.5 225t52.5 200.5t64.5 220.5t59 201
q-11 63 13.5 115t72.5 108q58 -8 282 -50.5t370 -51.5q5 -11 21 -29t22.5 -34.5t-0.5 -39.5zM1006 2089q9 -59 -7.5 -105t-52.5 -99t-49 -83q-54 -81 -70 -155q-27 -14 -54 -6t-46 34q18 69 55.5 140t89.5 153t76 129q12 13 32 11.5t26 -19.5z" />
    <glyph glyph-name="Ecircumflex" unicode="&#xca;" horiz-adv-x="1372" 
d="M1139 1423q-66 -11 -123 -5.5t-120.5 14.5t-118.5 17t-116.5 2.5t-113.5 -28.5q-6 -37 -27 -97.5t-36 -108.5t-22 -102t13.5 -100.5t71.5 -80.5q29 -15 78.5 -19t93 -5t85 -9t64.5 -39.5t21 -89.5q-32 -22 -72.5 -23.5t-80 11t-81.5 29.5t-82 29t-78 12.5t-73.5 -24.5
t-63.5 -77q10 -44 4.5 -94t-24 -98t-30 -95.5t-14 -87t23.5 -72t83 -51.5q26 -8 53 -2.5t47 16.5t48.5 16.5t56.5 -3.5q22 -19 40.5 -41t32.5 -49.5t7 -53.5t-37 -44q-146 -6 -299.5 8.5t-257.5 50.5q0 106 13 224t27.5 205t49.5 225t52.5 200.5t64.5 220.5t59 201
q-11 63 13.5 115t72.5 108q58 -8 282 -50.5t370 -51.5q5 -11 21 -29t22.5 -34.5t-0.5 -39.5zM940 1624q-45 30 -70 69.5t-34 72t-23 62.5t-49.5 51.5t-99.5 29.5q-16 7 -61.5 -33.5t-91.5 -91t-90.5 -86t-58.5 -21.5q5 9 13.5 25.5t35.5 62t54.5 87t66 90.5t73.5 83
t74.5 53.5t72.5 12.5q27 -6 54.5 -28t46.5 -49.5t34.5 -54.5t22.5 -45l8 -18q9 -19 20 -55t20 -80t5.5 -83t-23.5 -54z" />
    <glyph glyph-name="Edieresis" unicode="&#xcb;" horiz-adv-x="1372" 
d="M1139 1423q-66 -11 -123 -5.5t-120.5 14.5t-118.5 17t-116.5 2.5t-113.5 -28.5q-6 -37 -27 -97.5t-36 -108.5t-22 -102t13.5 -100.5t71.5 -80.5q29 -15 78.5 -19t93 -5t85 -9t64.5 -39.5t21 -89.5q-32 -22 -72.5 -23.5t-80 11t-81.5 29.5t-82 29t-78 12.5t-73.5 -24.5
t-63.5 -77q10 -44 4.5 -94t-24 -98t-30 -95.5t-14 -87t23.5 -72t83 -51.5q26 -8 53 -2.5t47 16.5t48.5 16.5t56.5 -3.5q22 -19 40.5 -41t32.5 -49.5t7 -53.5t-37 -44q-146 -6 -299.5 8.5t-257.5 50.5q0 106 13 224t27.5 205t49.5 225t52.5 200.5t64.5 220.5t59 201
q-11 63 13.5 115t72.5 108q58 -8 282 -50.5t370 -51.5q5 -11 21 -29t22.5 -34.5t-0.5 -39.5zM614 1798q2 -27 -6 -45t-29.5 -28.5t-37 -14.5t-49.5 -10q-17 -1 -30.5 4t-21.5 12t-15.5 22t-10 23t-7.5 26.5t-6 22.5q-9 91 54 95q51 4 110 -43q39 -31 49 -64zM963 1694
q-21 -16 -41 -18.5t-39.5 9.5t-33.5 24.5t-34 35.5q-12 16 -15 32t5 31.5t15 25.5t21.5 25.5t18.5 20.5q75 59 113 2q29 -45 18 -118q-6 -46 -28 -70z" />
    <glyph glyph-name="Igrave" unicode="&#xcc;" horiz-adv-x="643" 
d="M381 23q-12 -29 -42 -39t-58.5 -4.5t-47.5 18.5l-43 63q-56 786 -190 1434q60 138 160 16q53 -66 92 -165q-8 -60 3.5 -126t43 -164.5t39.5 -127.5q5 -106 19 -292t21 -331t3 -282zM-117 2091q57 -17 91.5 -52t66 -90.5t53.5 -80.5q44 -78 109 -131q3 -28 -17.5 -50
t-52.5 -28q-54 47 -101.5 112t-98.5 146.5t-83 124.5q-5 18 5 35t28 14z" />
    <glyph glyph-name="Iacute" unicode="&#xcd;" horiz-adv-x="643" 
d="M381 23q-12 -29 -42 -39t-58.5 -4.5t-47.5 18.5l-43 63q-56 786 -190 1434q63 141 163 13q50 -64 89 -162q-8 -60 3.5 -126t43 -164.5t39.5 -127.5q5 -106 19 -292t21 -331t3 -282zM391 2068q7 -46 -3 -87t-26.5 -67.5t-41.5 -65t-37 -66.5q-54 -80 -70 -156
q-27 -14 -53.5 -5.5t-46.5 34.5q18 69 55.5 140t89.5 153t76 129q12 13 31.5 11t25.5 -20z" />
    <glyph glyph-name="Icircumflex" unicode="&#xce;" horiz-adv-x="643" 
d="M381 23q-12 -29 -42 -39t-58.5 -4.5t-47.5 18.5l-43 63q-56 786 -190 1434q63 141 163 13q50 -64 89 -162q-8 -60 3.5 -126t43 -164.5t39.5 -127.5q5 -106 19 -292t21 -331t3 -282zM416 1538q-45 30 -70 69.5t-34.5 72t-23 62.5t-49.5 51.5t-100 29.5q-16 7 -61.5 -33.5
t-91.5 -91t-90 -86t-58 -21.5q5 9 13.5 25.5t35.5 62t54 87t65.5 90.5t73.5 83t74.5 53.5t72.5 12.5q27 -6 54.5 -28t46.5 -49.5t34.5 -54.5t23.5 -45l7 -18q9 -20 20 -55.5t20.5 -79.5t6 -83t-23.5 -54z" />
    <glyph glyph-name="Idieresis" unicode="&#xcf;" horiz-adv-x="643" 
d="M381 23q-12 -29 -42 -39t-58.5 -4.5t-47.5 18.5l-43 63q-56 786 -190 1434q63 141 163 13q50 -64 89 -162q-8 -60 3.5 -126t43 -164.5t39.5 -127.5q5 -106 19 -292t21 -331t3 -282zM82 1798q2 -27 -6 -45t-30 -28.5t-37.5 -14.5t-49.5 -10q-17 -1 -30.5 4t-21.5 12
t-15 22t-10 23.5t-7.5 26.5l-5.5 22q-9 91 54 95q51 4 110 -43q39 -31 49 -64zM430 1694q-21 -16 -41 -18.5t-39.5 9.5t-33 24.5t-33.5 35.5q-12 16 -15 32t5 31.5t15 25.5t21.5 25.5t18.5 20.5q75 59 112 2q30 -45 19 -118q-7 -46 -29 -70z" />
    <glyph glyph-name="Ntilde" unicode="&#xd1;" 
d="M1307 1677q-22 -117 -32 -273.5t-13 -277t-22.5 -264.5t-59.5 -256q-15 -42 -8.5 -87t13.5 -94t10.5 -90t-18 -74.5t-71.5 -47.5q-59 114 -146.5 237.5t-166 216t-176.5 215.5t-164 222q-10 9 -46.5 45.5t-62 52t-55.5 15.5q-24 -71 -36.5 -148.5t-22.5 -182.5t-17 -153
q9 -42 11.5 -84t-7 -90t-33.5 -80l-22 -334q-27 -14 -45 -11.5t-27 11.5t-16 27.5t-10.5 35.5t-11 35.5t-17.5 28.5q78 556 90 1160q5 8 14.5 22t15.5 22t15.5 19t18.5 16.5t21.5 10t28 4t33.5 -5.5q72 -107 181 -235.5t210.5 -254t174.5 -246.5q11 -8 22 -17.5t22.5 -22.5
t20 -21.5t21.5 -25.5t18.5 -24t20 -27.5t18 -25t19 -27t16.5 -24.5q29 29 47.5 63t27 76.5t11 70.5t4.5 79q3 83 13.5 211.5t18 220t6.5 205t-16 203.5q24 13 57 18.5t69 -3.5t53 -36zM1307 1677q-22 -117 -32 -273.5t-13 -277t-22.5 -264.5t-59.5 -256q-15 -42 -8.5 -87
t13.5 -94t10.5 -90t-18 -74.5t-71.5 -47.5q-59 114 -146.5 237.5t-166 216t-176.5 215.5t-164 222q-10 9 -46.5 45.5t-62 52t-55.5 15.5q-24 -71 -36.5 -148.5t-22.5 -182.5t-17 -153q9 -42 11.5 -84t-7 -90t-33.5 -80l-22 -334q-27 -14 -45 -11.5t-27 11.5t-16 27.5
t-10.5 35.5t-11 35.5t-17.5 28.5q78 556 90 1160q5 8 14.5 22t15.5 22t15.5 19t18.5 16.5t21.5 10t28 4t33.5 -5.5q72 -107 181 -235.5t210.5 -254t174.5 -246.5q11 -8 22 -17.5t22.5 -22.5t20 -21.5t21.5 -25.5t18.5 -24t20 -27.5t18 -25t19 -27t16.5 -24.5q29 29 47.5 63
t27 76.5t11 70.5t4.5 79q3 83 13.5 211.5t18 220t6.5 205t-16 203.5q24 13 57 18.5t69 -3.5t53 -36zM1028 1786q-20 -73 -52.5 -107.5t-68.5 -35.5t-85 16t-95 42t-106.5 49t-110.5 30q-17 8 -55 -11t-75 -45t-73.5 -40.5t-50.5 -0.5q6 11 17 28t45.5 60t69 73.5t83.5 51.5
t94 11q44 -9 108.5 -36t106.5 -50l43 -23q42 -37 176 -7q39 9 39 5q0 -2 -10 -10z" />
    <glyph glyph-name="Ograve" unicode="&#xd2;" 
d="M1122 311q-83 -77 -174.5 -130.5t-190.5 -82t-203.5 -17.5t-201.5 64q-91 70 -153.5 162t-94 186.5t-43 209t-8 216t18.5 222.5q4 33 19.5 64t42.5 61t48 49.5t56.5 49t48.5 40.5q42 -2 106.5 11t109.5 22.5t96 -6.5t85 -68q143 -55 255 -166.5t183 -255.5
q0 -53 18.5 -127t36 -136t27.5 -128.5t-9 -128.5t-73 -111zM983 809q-25 55 -51.5 103.5t-62.5 99t-74 89t-86 70t-99.5 46.5t-113 13.5t-127.5 -24.5q-48 -30 -78.5 -85t-36.5 -113q-65 -187 1.5 -389t213.5 -349q129 -23 261.5 22.5t236.5 135.5q41 36 52 87t1 94.5
t-23.5 103t-13.5 96.5zM186 1980q57 -17 91.5 -52t66 -90.5t53.5 -80.5q44 -78 109 -131q3 -28 -17.5 -50t-52.5 -28q-54 47 -101 112t-98 146.5t-83 124.5q-5 18 4.5 35t27.5 14z" />
    <glyph glyph-name="Oacute" unicode="&#xd3;" 
d="M1122 311q-83 -77 -174.5 -130.5t-190.5 -82t-203.5 -17.5t-201.5 64q-91 70 -153.5 162t-94 186.5t-43 209t-8 216t18.5 222.5q4 33 19.5 64t42.5 61t48 49.5t56.5 49t48.5 40.5q42 -2 106.5 11t109.5 22.5t96 -6.5t85 -68q143 -55 255 -166.5t183 -255.5
q0 -53 18.5 -127t36 -136t27.5 -128.5t-9 -128.5t-73 -111zM983 809q-25 55 -51.5 103.5t-62.5 99t-74 89t-86 70t-99.5 46.5t-113 13.5t-127.5 -24.5q-48 -30 -78.5 -85t-36.5 -113q-65 -187 1.5 -389t213.5 -349q129 -23 261.5 22.5t236.5 135.5q41 36 52 87t1 94.5
t-23.5 103t-13.5 96.5zM821 1987q9 -59 -7 -105t-52 -99t-49 -83q-54 -80 -70 -156q-27 -14 -53.5 -5.5t-46.5 34.5q18 69 55.5 140t89.5 153t76 129q12 13 31.5 11.5t25.5 -19.5z" />
    <glyph glyph-name="Ocircumflex" unicode="&#xd4;" 
d="M1122 311q-83 -77 -174.5 -130.5t-190.5 -82t-203.5 -17.5t-201.5 64q-91 70 -153.5 162t-94 186.5t-43 209t-8 216t18.5 222.5q4 33 19.5 64t42.5 61t48 49.5t56.5 49t48.5 40.5q42 -2 106.5 11t109.5 22.5t96 -6.5t85 -68q143 -55 255 -166.5t183 -255.5
q0 -53 18.5 -127t36 -136t27.5 -128.5t-9 -128.5t-73 -111zM983 809q-25 55 -51.5 103.5t-62.5 99t-74 89t-86 70t-99.5 46.5t-113 13.5t-127.5 -24.5q-48 -30 -78.5 -85t-36.5 -113q-65 -187 1.5 -389t213.5 -349q129 -23 261.5 22.5t236.5 135.5q41 36 52 87t1 94.5
t-23.5 103t-13.5 96.5zM766 1454q-45 30 -70 69.5t-34.5 72t-23 62.5t-49.5 51.5t-100 29.5q-16 7 -61.5 -33.5t-91.5 -91t-90 -86t-58 -21.5q5 9 13.5 25.5t35.5 62t54.5 87t66 90.5t73.5 83t74.5 53.5t72.5 12.5q27 -6 54.5 -28t46.5 -49.5t34 -54.5t23 -45l7 -18
q9 -20 20 -55.5t20.5 -79.5t6 -83t-23.5 -54z" />
    <glyph glyph-name="Otilde" unicode="&#xd5;" 
d="M1122 311q-83 -77 -174.5 -130.5t-190.5 -82t-203.5 -17.5t-201.5 64q-91 70 -153.5 162t-94 186.5t-43 209t-8 216t18.5 222.5q4 33 19.5 64t42.5 61t48 49.5t56.5 49t48.5 40.5q42 -2 106.5 11t109.5 22.5t96 -6.5t85 -68q143 -55 255 -166.5t183 -255.5
q0 -53 18.5 -127t36 -136t27.5 -128.5t-9 -128.5t-73 -111zM983 809q-25 55 -51.5 103.5t-62.5 99t-74 89t-86 70t-99.5 46.5t-113 13.5t-127.5 -24.5q-48 -30 -78.5 -85t-36.5 -113q-65 -187 1.5 -389t213.5 -349q129 -23 261.5 22.5t236.5 135.5q41 36 52 87t1 94.5
t-23.5 103t-13.5 96.5zM848 1595q-20 -73 -52.5 -107.5t-68.5 -35.5t-85 16t-95 42t-106.5 49t-110.5 30q-17 8 -55 -11t-75 -44.5t-73.5 -40t-50.5 -0.5q6 10 17 27.5t45.5 60t69 73t83.5 51.5t94 11q44 -9 108.5 -36t106.5 -50l43 -22q42 -37 175 -8q39 9 40 6t-10 -11z
" />
    <glyph glyph-name="Odieresis" unicode="&#xd6;" 
d="M1122 311q-83 -77 -174.5 -130.5t-190.5 -82t-203.5 -17.5t-201.5 64q-91 70 -153.5 162t-94 186.5t-43 209t-8 216t18.5 222.5q4 33 19.5 64t42.5 61t48 49.5t56.5 49t48.5 40.5q42 -2 106.5 11t109.5 22.5t96 -6.5t85 -68q143 -55 255 -166.5t183 -255.5
q0 -53 18.5 -127t36 -136t27.5 -128.5t-9 -128.5t-73 -111zM983 809q-25 55 -51.5 103.5t-62.5 99t-74 89t-86 70t-99.5 46.5t-113 13.5t-127.5 -24.5q-48 -30 -78.5 -85t-36.5 -113q-65 -187 1.5 -389t213.5 -349q129 -23 261.5 22.5t236.5 135.5q41 36 52 87t1 94.5
t-23.5 103t-13.5 96.5zM348 1655q2 -22 -5 -38.5t-16 -25.5t-29.5 -16.5t-33 -10.5t-39.5 -8q-17 -1 -30.5 4t-21.5 12.5t-15 22t-10 23.5t-7.5 26.5t-5.5 22.5q-9 91 54 95q51 4 110 -43q38 -32 49 -64zM696 1550q-21 -16 -41 -18.5t-39.5 10t-32.5 25t-34 35.5
q-12 16 -15 32t5 31.5t15 25.5t21.5 25.5t18.5 20.5q74 59 112 2q30 -45 19 -118q-8 -47 -29 -71z" />
    <glyph glyph-name="Ugrave" unicode="&#xd9;" horiz-adv-x="1644" 
d="M1155 760q-14 -227 -94 -456.5t-213 -409.5q-51 3 -101.5 18.5t-92 35.5t-88 54t-79.5 63t-77.5 74.5t-71.5 76t-71.5 81t-67.5 76.5q-96 271 -147.5 566.5t-51.5 578.5q26 48 63.5 60.5t70 -5.5t57 -55t26.5 -80q3 -66 5 -177.5t4.5 -189.5t10 -183t25.5 -187.5
t47.5 -171.5t79 -167t117.5 -143q28 2 71.5 -16.5t81.5 -37t76.5 -27.5t68 16.5t44.5 91.5q223 485 172 1057q5 5 13 14t14 15t14.5 13.5t15.5 13t16.5 10.5t18.5 7t20.5 1.5t22.5 -3.5q6 -41 22 -117t25.5 -131.5t14 -123.5t-10.5 -129.5t-51 -112.5zM383 2056
q57 -17 91.5 -52.5t66 -90.5t53.5 -80q48 -84 108 -131q3 -28 -17 -50t-52 -28q-54 47 -101.5 112t-98.5 146.5t-83 124.5q-5 18 5 34t28 15z" />
    <glyph glyph-name="Uacute" unicode="&#xda;" horiz-adv-x="1644" 
d="M1155 760q-14 -227 -94 -456.5t-213 -409.5q-51 3 -101.5 18.5t-92 35.5t-88 54t-79.5 63t-77.5 74.5t-71.5 76t-71.5 81t-67.5 76.5q-96 271 -147.5 566.5t-51.5 578.5q26 48 63.5 60.5t70 -5.5t57 -55t26.5 -80q3 -66 5 -177.5t4.5 -189.5t10 -183t25.5 -187.5
t47.5 -171.5t79 -167t117.5 -143q28 2 71.5 -16.5t81.5 -37t76.5 -27.5t68 16.5t44.5 91.5q223 485 172 1057q5 5 13 14t14 15t14.5 13.5t15.5 13t16.5 10.5t18.5 7t20.5 1.5t22.5 -3.5q6 -41 22 -117t25.5 -131.5t14 -123.5t-10.5 -129.5t-51 -112.5zM862 2068
q7 -46 -3 -87t-26.5 -67.5t-41.5 -65t-37 -66.5q-54 -80 -70 -156q-27 -14 -53.5 -5.5t-46.5 34.5q18 69 55.5 140t89.5 153t76 129q12 13 31.5 11t25.5 -20z" />
    <glyph glyph-name="Ucircumflex" unicode="&#xdb;" horiz-adv-x="1644" 
d="M1155 760q-14 -227 -94 -456.5t-213 -409.5q-51 3 -101.5 18.5t-92 35.5t-88 54t-79.5 63t-77.5 74.5t-71.5 76t-71.5 81t-67.5 76.5q-96 271 -147.5 566.5t-51.5 578.5q26 48 63.5 60.5t70 -5.5t57 -55t26.5 -80q3 -66 5 -177.5t4.5 -189.5t10 -183t25.5 -187.5
t47.5 -171.5t79 -167t117.5 -143q28 2 71.5 -16.5t81.5 -37t76.5 -27.5t68 16.5t44.5 91.5q223 485 172 1057q5 5 13 14t14 15t14.5 13.5t15.5 13t16.5 10.5t18.5 7t20.5 1.5t22.5 -3.5q6 -41 22 -117t25.5 -131.5t14 -123.5t-10.5 -129.5t-51 -112.5zM885 1554
q-45 30 -70 69.5t-34.5 72t-23 62.5t-49.5 51.5t-100 29.5q-16 7 -61.5 -33.5t-91.5 -91t-90 -85.5t-58 -21q5 9 13.5 25t35.5 62t54 87t65.5 90.5t73.5 83t74.5 53t72.5 12.5q27 -6 54.5 -28t46.5 -49.5t34.5 -54t22.5 -44.5l8 -18q9 -20 20 -55.5t20.5 -80t6 -83.5
t-23.5 -54z" />
    <glyph glyph-name="Udieresis" unicode="&#xdc;" horiz-adv-x="1644" 
d="M1155 760q-14 -227 -94 -456.5t-213 -409.5q-51 3 -101.5 18.5t-92 35.5t-88 54t-79.5 63t-77.5 74.5t-71.5 76t-71.5 81t-67.5 76.5q-96 271 -147.5 566.5t-51.5 578.5q26 48 63.5 60.5t70 -5.5t57 -55t26.5 -80q3 -66 5 -177.5t4.5 -189.5t10 -183t25.5 -187.5
t47.5 -171.5t79 -167t117.5 -143q28 2 71.5 -16.5t81.5 -37t76.5 -27.5t68 16.5t44.5 91.5q223 485 172 1057q5 5 13 14t14 15t14.5 13.5t15.5 13t16.5 10.5t18.5 7t20.5 1.5t22.5 -3.5q6 -41 22 -117t25.5 -131.5t14 -123.5t-10.5 -129.5t-51 -112.5zM553 1696
q2 -22 -5 -38.5t-16 -25.5t-29.5 -16.5t-33 -10.5t-39.5 -8q-17 -1 -30.5 4t-21.5 12.5t-15 22t-10 23.5t-7.5 26.5t-5.5 22.5q-9 91 54 95q51 4 110 -43q39 -31 49 -64zM901 1591q-21 -16 -41 -18.5t-39.5 9.5t-33 24.5t-33.5 35.5q-12 16 -15 32t5 32t14.5 25.5t21.5 25.5
t19 21q74 59 112 2q30 -45 19 -118q-8 -47 -29 -71z" />
    <glyph glyph-name="agrave" unicode="&#xe0;" horiz-adv-x="1896" 
d="M1364 68q-41 26 -66.5 74.5t-37.5 101t-26.5 104t-46.5 94.5t-85 62q-45 4 -124.5 -1t-148 -10t-132 -5t-95 17.5t-18.5 55.5q44 28 113 34t128.5 0.5t126 7t109.5 52.5q-43 110 -144.5 314.5t-140.5 298.5q-74 -98 -136 -219.5t-108 -244.5t-87 -243.5t-93.5 -254.5
t-107.5 -238v-80q-42 -3 -80 -2.5t-69.5 21t-43.5 61.5q59 136 272 657t341 788q54 -11 95 -40.5t69 -72.5t48 -85t44.5 -95.5t46.5 -86.5q55 -44 98.5 -105.5t72.5 -123t57 -122.5t66.5 -120.5t86.5 -100.5q-15 -45 6 -107t51 -117t51 -108.5t1 -96t-93 -64.5zM383 2056
q57 -17 91.5 -52.5t66 -90.5t53.5 -80q48 -84 108 -131q3 -28 -17 -50t-52 -28q-54 47 -101.5 112t-98.5 146.5t-83 124.5q-5 18 5 34t28 15z" />
    <glyph glyph-name="aacute" unicode="&#xe1;" horiz-adv-x="1896" 
d="M1364 68q-41 26 -66.5 74.5t-37.5 101t-26.5 104t-46.5 94.5t-85 62q-45 4 -124.5 -1t-148 -10t-132 -5t-95 17.5t-18.5 55.5q44 28 113 34t128.5 0.5t126 7t109.5 52.5q-43 110 -144.5 314.5t-140.5 298.5q-74 -98 -136 -219.5t-108 -244.5t-87 -243.5t-93.5 -254.5
t-107.5 -238v-80q-42 -3 -80 -2.5t-69.5 21t-43.5 61.5q59 136 272 657t341 788q54 -11 95 -40.5t69 -72.5t48 -85t44.5 -95.5t46.5 -86.5q55 -44 98.5 -105.5t72.5 -123t57 -122.5t66.5 -120.5t86.5 -100.5q-15 -45 6 -107t51 -117t51 -108.5t1 -96t-93 -64.5zM1006 2068
q9 -59 -7.5 -105t-52.5 -98.5t-49 -82.5q-54 -80 -70 -156q-27 -14 -53.5 -5.5t-46.5 34.5q18 69 55.5 140t89.5 153t76 129q12 13 32 11t26 -20z" />
    <glyph glyph-name="acircumflex" unicode="&#xe2;" horiz-adv-x="1896" 
d="M1364 68q-41 26 -66.5 74.5t-37.5 101t-26.5 104t-46.5 94.5t-85 62q-45 4 -124.5 -1t-148 -10t-132 -5t-95 17.5t-18.5 55.5q44 28 113 34t128.5 0.5t126 7t109.5 52.5q-43 110 -144.5 314.5t-140.5 298.5q-74 -98 -136 -219.5t-108 -244.5t-87 -243.5t-93.5 -254.5
t-107.5 -238v-80q-42 -3 -80 -2.5t-69.5 21t-43.5 61.5q59 136 272 657t341 788q54 -11 95 -40.5t69 -72.5t48 -85t44.5 -95.5t46.5 -86.5q55 -44 98.5 -105.5t72.5 -123t57 -122.5t66.5 -120.5t86.5 -100.5q-15 -45 6 -107t51 -117t51 -108.5t1 -96t-93 -64.5zM938 1475
q-45 30 -70 69.5t-34 71.5t-23 62.5t-49.5 51.5t-99.5 29q-13 5 -45.5 -20.5t-70 -64.5t-75 -77.5t-68.5 -59.5t-43 -9q5 9 13.5 25.5t35.5 62t54.5 87t66 90.5t73.5 83t74.5 53.5t72.5 12.5q27 -6 54.5 -28t46.5 -49.5t34 -54.5t23 -45l7 -18q9 -20 20 -55.5t20.5 -79.5
t6 -83t-23.5 -54z" />
    <glyph glyph-name="atilde" unicode="&#xe3;" horiz-adv-x="1896" 
d="M1364 68q-41 26 -66.5 74.5t-37.5 101t-26.5 104t-46.5 94.5t-85 62q-45 4 -124.5 -1t-148 -10t-132 -5t-95 17.5t-18.5 55.5q44 28 113 34t128.5 0.5t126 7t109.5 52.5q-43 110 -144.5 314.5t-140.5 298.5q-74 -98 -136 -219.5t-108 -244.5t-87 -243.5t-93.5 -254.5
t-107.5 -238v-80q-42 -3 -80 -2.5t-69.5 21t-43.5 61.5q59 136 272 657t341 788q54 -11 95 -40.5t69 -72.5t48 -85t44.5 -95.5t46.5 -86.5q55 -44 98.5 -105.5t72.5 -123t57 -122.5t66.5 -120.5t86.5 -100.5q-15 -45 6 -107t51 -117t51 -108.5t1 -96t-93 -64.5zM1090 1673
q-20 -73 -52.5 -107.5t-68.5 -35.5t-85.5 16t-95 42t-106.5 49t-111 30q-17 8 -55 -11t-75 -44.5t-73.5 -40t-50.5 -0.5q6 10 17 27.5t45.5 60t69.5 73t84 51.5t94 11q44 -9 108.5 -36t106.5 -50l43 -22q42 -37 175 -8q39 9 40 6t-10 -11z" />
    <glyph glyph-name="adieresis" unicode="&#xe4;" horiz-adv-x="1896" 
d="M1364 68q-41 26 -66.5 74.5t-37.5 101t-26.5 104t-46.5 94.5t-85 62q-45 4 -124.5 -1t-148 -10t-132 -5t-95 17.5t-18.5 55.5q44 28 113 34t128.5 0.5t126 7t109.5 52.5q-43 110 -144.5 314.5t-140.5 298.5q-74 -98 -136 -219.5t-108 -244.5t-87 -243.5t-93.5 -254.5
t-107.5 -238v-80q-42 -3 -80 -2.5t-69.5 21t-43.5 61.5q59 136 272 657t341 788q54 -11 95 -40.5t69 -72.5t48 -85t44.5 -95.5t46.5 -86.5q55 -44 98.5 -105.5t72.5 -123t57 -122.5t66.5 -120.5t86.5 -100.5q-15 -45 6 -107t51 -117t51 -108.5t1 -96t-93 -64.5zM553 1737
q2 -22 -5 -38.5t-16 -25.5t-29.5 -16.5t-33 -10.5t-39.5 -8q-17 -1 -30.5 4t-21.5 12.5t-15 22t-10 23.5t-7.5 26.5t-5.5 22.5q-9 91 54 95q51 4 110 -43q39 -31 49 -64zM901 1632q-21 -16 -41 -18.5t-39.5 9.5t-33 24.5t-33.5 35.5q-12 16 -15 32t5 32t14.5 25.5t21.5 25.5
t19 21q74 59 112 2q30 -45 19 -118q-8 -47 -29 -71z" />
    <glyph glyph-name="aring" unicode="&#xe5;" horiz-adv-x="1896" 
d="M1364 68q-41 26 -66.5 74.5t-37.5 101t-26.5 104t-46.5 94.5t-85 62q-45 4 -124.5 -1t-148 -10t-132 -5t-95 17.5t-18.5 55.5q44 28 113 34t128.5 0.5t126 7t109.5 52.5q-43 110 -144.5 314.5t-140.5 298.5q-74 -98 -136 -219.5t-108 -244.5t-87 -243.5t-93.5 -254.5
t-107.5 -238v-80q-42 -3 -80 -2.5t-69.5 21t-43.5 61.5q59 136 272 657t341 788q54 -11 95 -40.5t69 -72.5t48 -85t44.5 -95.5t46.5 -86.5q55 -44 98.5 -105.5t72.5 -123t57 -122.5t66.5 -120.5t86.5 -100.5q-15 -45 6 -107t51 -117t51 -108.5t1 -96t-93 -64.5zM754 1763
q17 50 -26 85q-38 32 -78 18q-53 -18 -44 -103q3 -9 5 -23t4 -22.5t7.5 -16.5t17.5 -11.5t32 -1.5q9 2 20 3.5t16.5 2.5t14 2.5t11.5 3.5t9 5.5t6.5 8t4 11.5t1.5 16t-1 22zM758 1642q-24 -18 -48 -22.5t-42 0t-41.5 22.5t-36.5 31.5t-37 40.5q-14 19 -18 38.5t-1.5 34
t14.5 33t20.5 28.5t26 27.5t21.5 22.5q96 77 149 12q40 -51 35 -146q-5 -81 -42 -122z" />
    <glyph glyph-name="ccedilla" unicode="&#xe7;" horiz-adv-x="1388" 
d="M332 -356q42 34 86.5 46t78.5 11.5t67 4t63.5 32t56.5 86.5q15 19 -51 143q-105 4 -172 39q-27 23 -82 65t-90.5 70t-81 71.5t-71 81t-42 86.5t-12.5 99q8 94 16 161t24.5 158t39 158t60 143.5t85.5 134t117 110t154 88.5q6 1 81 17.5t94.5 20t83.5 14.5t98 13t84.5 2
t92.5 -6q8 -13 9.5 -25t-3.5 -22t-12.5 -19.5t-21 -18t-25.5 -15.5t-29.5 -14.5t-29.5 -12t-29 -11t-25 -9.5q-165 0 -312.5 -86.5t-221.5 -223.5q-3 -68 -25.5 -175t-39.5 -185.5t-9 -173.5t55 -168q50 -103 152 -158q1 1 3 2t3 2q6 -6 14 -16q56 -26 128.5 -42
t162.5 -29.5t139 -24.5q24 -21 21 -48t-21.5 -52t-48.5 -48q-41 29 -90.5 38t-118.5 9q143 -194 94 -280q-13 -24 -42 -43.5t-60.5 -29.5t-61.5 -17t-49 -9l-20 -2q-57 -10 -154 2t-112 56z" />
    <glyph glyph-name="egrave" unicode="&#xe8;" horiz-adv-x="1372" 
d="M1139 1423q-66 -11 -123 -5.5t-120.5 14.5t-118.5 17t-116.5 2.5t-113.5 -28.5q-6 -37 -27 -97.5t-36 -108.5t-22 -102t13.5 -100.5t71.5 -80.5q29 -15 78.5 -19t93 -5t85 -9t64.5 -39.5t21 -89.5q-32 -22 -72.5 -23.5t-80 11t-81.5 29.5t-82 29t-78 12.5t-73.5 -24.5
t-63.5 -77q10 -44 4.5 -94t-24 -98t-30 -95.5t-14 -87t23.5 -72t83 -51.5q26 -8 53 -2.5t47 16.5t48.5 16.5t56.5 -3.5q22 -19 40.5 -41t32.5 -49.5t7 -53.5t-37 -44q-146 -6 -299.5 8.5t-257.5 50.5q0 106 13 224t27.5 205t49.5 225t52.5 200.5t64.5 220.5t59 201
q-11 63 13.5 115t72.5 108q58 -8 282 -50.5t370 -51.5q5 -11 21 -29t22.5 -34.5t-0.5 -39.5zM383 2097q57 -17 91.5 -52.5t66 -90.5t53.5 -80q48 -84 108 -131q3 -28 -17 -50t-52 -28q-54 47 -101.5 112t-98.5 146.5t-83 124.5q-5 18 5 34t28 15z" />
    <glyph glyph-name="eacute" unicode="&#xe9;" horiz-adv-x="1372" 
d="M1139 1423q-66 -11 -123 -5.5t-120.5 14.5t-118.5 17t-116.5 2.5t-113.5 -28.5q-6 -37 -27 -97.5t-36 -108.5t-22 -102t13.5 -100.5t71.5 -80.5q29 -15 78.5 -19t93 -5t85 -9t64.5 -39.5t21 -89.5q-32 -22 -72.5 -23.5t-80 11t-81.5 29.5t-82 29t-78 12.5t-73.5 -24.5
t-63.5 -77q10 -44 4.5 -94t-24 -98t-30 -95.5t-14 -87t23.5 -72t83 -51.5q26 -8 53 -2.5t47 16.5t48.5 16.5t56.5 -3.5q22 -19 40.5 -41t32.5 -49.5t7 -53.5t-37 -44q-146 -6 -299.5 8.5t-257.5 50.5q0 106 13 224t27.5 205t49.5 225t52.5 200.5t64.5 220.5t59 201
q-11 63 13.5 115t72.5 108q58 -8 282 -50.5t370 -51.5q5 -11 21 -29t22.5 -34.5t-0.5 -39.5zM1006 2089q9 -59 -7.5 -105t-52.5 -99t-49 -83q-54 -81 -70 -155q-27 -14 -54 -6t-46 34q18 69 55.5 140t89.5 153t76 129q12 13 32 11.5t26 -19.5z" />
    <glyph glyph-name="ecircumflex" unicode="&#xea;" horiz-adv-x="1372" 
d="M1139 1423q-66 -11 -123 -5.5t-120.5 14.5t-118.5 17t-116.5 2.5t-113.5 -28.5q-6 -37 -27 -97.5t-36 -108.5t-22 -102t13.5 -100.5t71.5 -80.5q29 -15 78.5 -19t93 -5t85 -9t64.5 -39.5t21 -89.5q-32 -22 -72.5 -23.5t-80 11t-81.5 29.5t-82 29t-78 12.5t-73.5 -24.5
t-63.5 -77q10 -44 4.5 -94t-24 -98t-30 -95.5t-14 -87t23.5 -72t83 -51.5q26 -8 53 -2.5t47 16.5t48.5 16.5t56.5 -3.5q22 -19 40.5 -41t32.5 -49.5t7 -53.5t-37 -44q-146 -6 -299.5 8.5t-257.5 50.5q0 106 13 224t27.5 205t49.5 225t52.5 200.5t64.5 220.5t59 201
q-11 63 13.5 115t72.5 108q58 -8 282 -50.5t370 -51.5q5 -11 21 -29t22.5 -34.5t-0.5 -39.5zM940 1624q-45 30 -70 69.5t-34 72t-23 62.5t-49.5 51.5t-99.5 29.5q-16 7 -61.5 -33.5t-91.5 -91t-90.5 -86t-58.5 -21.5q5 9 13.5 25.5t35.5 62t54.5 87t66 90.5t73.5 83
t74.5 53.5t72.5 12.5q27 -6 54.5 -28t46.5 -49.5t34.5 -54.5t22.5 -45l8 -18q9 -19 20 -55t20 -80t5.5 -83t-23.5 -54z" />
    <glyph glyph-name="edieresis" unicode="&#xeb;" horiz-adv-x="1372" 
d="M1139 1423q-66 -11 -123 -5.5t-120.5 14.5t-118.5 17t-116.5 2.5t-113.5 -28.5q-6 -37 -27 -97.5t-36 -108.5t-22 -102t13.5 -100.5t71.5 -80.5q29 -15 78.5 -19t93 -5t85 -9t64.5 -39.5t21 -89.5q-32 -22 -72.5 -23.5t-80 11t-81.5 29.5t-82 29t-78 12.5t-73.5 -24.5
t-63.5 -77q10 -44 4.5 -94t-24 -98t-30 -95.5t-14 -87t23.5 -72t83 -51.5q26 -8 53 -2.5t47 16.5t48.5 16.5t56.5 -3.5q22 -19 40.5 -41t32.5 -49.5t7 -53.5t-37 -44q-146 -6 -299.5 8.5t-257.5 50.5q0 106 13 224t27.5 205t49.5 225t52.5 200.5t64.5 220.5t59 201
q-11 63 13.5 115t72.5 108q58 -8 282 -50.5t370 -51.5q5 -11 21 -29t22.5 -34.5t-0.5 -39.5zM614 1798q2 -27 -6 -45t-29.5 -28.5t-37 -14.5t-49.5 -10q-17 -1 -30.5 4t-21.5 12t-15.5 22t-10 23t-7.5 26.5t-6 22.5q-9 91 54 95q51 4 110 -43q39 -31 49 -64zM963 1694
q-21 -16 -41 -18.5t-39.5 9.5t-33.5 24.5t-34 35.5q-12 16 -15 32t5 31.5t15 25.5t21.5 25.5t18.5 20.5q75 59 113 2q29 -45 18 -118q-6 -46 -28 -70z" />
    <glyph glyph-name="igrave" unicode="&#xec;" horiz-adv-x="643" 
d="M381 23q-12 -29 -42 -39t-58.5 -4.5t-47.5 18.5l-43 63q-56 786 -190 1434q60 138 160 16q53 -66 92 -165q-8 -60 3.5 -126t43 -164.5t39.5 -127.5q5 -106 19 -292t21 -331t3 -282zM-117 2091q57 -17 91.5 -52t66 -90.5t53.5 -80.5q44 -78 109 -131q3 -28 -17.5 -50
t-52.5 -28q-54 47 -101.5 112t-98.5 146.5t-83 124.5q-5 18 5 35t28 14z" />
    <glyph glyph-name="iacute" unicode="&#xed;" horiz-adv-x="643" 
d="M381 23q-12 -29 -42 -39t-58.5 -4.5t-47.5 18.5l-43 63q-56 786 -190 1434q63 141 163 13q50 -64 89 -162q-8 -60 3.5 -126t43 -164.5t39.5 -127.5q5 -106 19 -292t21 -331t3 -282zM391 2068q7 -46 -3 -87t-26.5 -67.5t-41.5 -65t-37 -66.5q-54 -80 -70 -156
q-27 -14 -53.5 -5.5t-46.5 34.5q18 69 55.5 140t89.5 153t76 129q12 13 31.5 11t25.5 -20z" />
    <glyph glyph-name="icircumflex" unicode="&#xee;" horiz-adv-x="643" 
d="M381 23q-12 -29 -42 -39t-58.5 -4.5t-47.5 18.5l-43 63q-56 786 -190 1434q63 141 163 13q50 -64 89 -162q-8 -60 3.5 -126t43 -164.5t39.5 -127.5q5 -106 19 -292t21 -331t3 -282zM416 1538q-45 30 -70 69.5t-34.5 72t-23 62.5t-49.5 51.5t-100 29.5q-16 7 -61.5 -33.5
t-91.5 -91t-90 -86t-58 -21.5q5 9 13.5 25.5t35.5 62t54 87t65.5 90.5t73.5 83t74.5 53.5t72.5 12.5q27 -6 54.5 -28t46.5 -49.5t34.5 -54.5t23.5 -45l7 -18q9 -20 20 -55.5t20.5 -79.5t6 -83t-23.5 -54z" />
    <glyph glyph-name="idieresis" unicode="&#xef;" horiz-adv-x="643" 
d="M381 23q-12 -29 -42 -39t-58.5 -4.5t-47.5 18.5l-43 63q-56 786 -190 1434q63 141 163 13q50 -64 89 -162q-8 -60 3.5 -126t43 -164.5t39.5 -127.5q5 -106 19 -292t21 -331t3 -282zM82 1798q2 -27 -6 -45t-30 -28.5t-37.5 -14.5t-49.5 -10q-17 -1 -30.5 4t-21.5 12
t-15 22t-10 23.5t-7.5 26.5l-5.5 22q-9 91 54 95q51 4 110 -43q39 -31 49 -64zM430 1694q-21 -16 -41 -18.5t-39.5 9.5t-33 24.5t-33.5 35.5q-12 16 -15 32t5 31.5t15 25.5t21.5 25.5t18.5 20.5q75 59 112 2q30 -45 19 -118q-7 -46 -29 -70z" />
    <glyph glyph-name="ntilde" unicode="&#xf1;" 
d="M1307 1677q-22 -117 -32 -273.5t-13 -277t-22.5 -264.5t-59.5 -256q-15 -42 -8.5 -87t13.5 -94t10.5 -90t-18 -74.5t-71.5 -47.5q-59 114 -146.5 237.5t-166 216t-176.5 215.5t-164 222q-10 9 -46.5 45.5t-62 52t-55.5 15.5q-24 -71 -36.5 -148.5t-22.5 -182.5t-17 -153
q9 -42 11.5 -84t-7 -90t-33.5 -80l-22 -334q-27 -14 -45 -11.5t-27 11.5t-16 27.5t-10.5 35.5t-11 35.5t-17.5 28.5q78 556 90 1160q5 8 14.5 22t15.5 22t15.5 19t18.5 16.5t21.5 10t28 4t33.5 -5.5q72 -107 181 -235.5t210.5 -254t174.5 -246.5q11 -8 22 -17.5t22.5 -22.5
t20 -21.5t21.5 -25.5t18.5 -24t20 -27.5t18 -25t19 -27t16.5 -24.5q29 29 47.5 63t27 76.5t11 70.5t4.5 79q3 83 13.5 211.5t18 220t6.5 205t-16 203.5q24 13 57 18.5t69 -3.5t53 -36zM1307 1677q-22 -117 -32 -273.5t-13 -277t-22.5 -264.5t-59.5 -256q-15 -42 -8.5 -87
t13.5 -94t10.5 -90t-18 -74.5t-71.5 -47.5q-59 114 -146.5 237.5t-166 216t-176.5 215.5t-164 222q-10 9 -46.5 45.5t-62 52t-55.5 15.5q-24 -71 -36.5 -148.5t-22.5 -182.5t-17 -153q9 -42 11.5 -84t-7 -90t-33.5 -80l-22 -334q-27 -14 -45 -11.5t-27 11.5t-16 27.5
t-10.5 35.5t-11 35.5t-17.5 28.5q78 556 90 1160q5 8 14.5 22t15.5 22t15.5 19t18.5 16.5t21.5 10t28 4t33.5 -5.5q72 -107 181 -235.5t210.5 -254t174.5 -246.5q11 -8 22 -17.5t22.5 -22.5t20 -21.5t21.5 -25.5t18.5 -24t20 -27.5t18 -25t19 -27t16.5 -24.5q29 29 47.5 63
t27 76.5t11 70.5t4.5 79q3 83 13.5 211.5t18 220t6.5 205t-16 203.5q24 13 57 18.5t69 -3.5t53 -36zM1028 1786q-20 -73 -52.5 -107.5t-68.5 -35.5t-85 16t-95 42t-106.5 49t-110.5 30q-17 8 -55 -11t-75 -45t-73.5 -40.5t-50.5 -0.5q6 11 17 28t45.5 60t69 73.5t83.5 51.5
t94 11q44 -9 108.5 -36t106.5 -50l43 -23q42 -37 176 -7q39 9 39 5q0 -2 -10 -10z" />
    <glyph glyph-name="ograve" unicode="&#xf2;" 
d="M1122 311q-83 -77 -174.5 -130.5t-190.5 -82t-203.5 -17.5t-201.5 64q-91 70 -153.5 162t-94 186.5t-43 209t-8 216t18.5 222.5q4 33 19.5 64t42.5 61t48 49.5t56.5 49t48.5 40.5q42 -2 106.5 11t109.5 22.5t96 -6.5t85 -68q143 -55 255 -166.5t183 -255.5
q0 -53 18.5 -127t36 -136t27.5 -128.5t-9 -128.5t-73 -111zM983 809q-25 55 -51.5 103.5t-62.5 99t-74 89t-86 70t-99.5 46.5t-113 13.5t-127.5 -24.5q-48 -30 -78.5 -85t-36.5 -113q-65 -187 1.5 -389t213.5 -349q129 -23 261.5 22.5t236.5 135.5q41 36 52 87t1 94.5
t-23.5 103t-13.5 96.5zM186 1980q57 -17 91.5 -52t66 -90.5t53.5 -80.5q44 -78 109 -131q3 -28 -17.5 -50t-52.5 -28q-54 47 -101 112t-98 146.5t-83 124.5q-5 18 4.5 35t27.5 14z" />
    <glyph glyph-name="oacute" unicode="&#xf3;" 
d="M1122 311q-83 -77 -174.5 -130.5t-190.5 -82t-203.5 -17.5t-201.5 64q-91 70 -153.5 162t-94 186.5t-43 209t-8 216t18.5 222.5q4 33 19.5 64t42.5 61t48 49.5t56.5 49t48.5 40.5q42 -2 106.5 11t109.5 22.5t96 -6.5t85 -68q143 -55 255 -166.5t183 -255.5
q0 -53 18.5 -127t36 -136t27.5 -128.5t-9 -128.5t-73 -111zM983 809q-25 55 -51.5 103.5t-62.5 99t-74 89t-86 70t-99.5 46.5t-113 13.5t-127.5 -24.5q-48 -30 -78.5 -85t-36.5 -113q-65 -187 1.5 -389t213.5 -349q129 -23 261.5 22.5t236.5 135.5q41 36 52 87t1 94.5
t-23.5 103t-13.5 96.5zM821 1987q9 -59 -7 -105t-52 -99t-49 -83q-54 -80 -70 -156q-27 -14 -53.5 -5.5t-46.5 34.5q18 69 55.5 140t89.5 153t76 129q12 13 31.5 11.5t25.5 -19.5z" />
    <glyph glyph-name="ocircumflex" unicode="&#xf4;" 
d="M1122 311q-83 -77 -174.5 -130.5t-190.5 -82t-203.5 -17.5t-201.5 64q-91 70 -153.5 162t-94 186.5t-43 209t-8 216t18.5 222.5q4 33 19.5 64t42.5 61t48 49.5t56.5 49t48.5 40.5q42 -2 106.5 11t109.5 22.5t96 -6.5t85 -68q143 -55 255 -166.5t183 -255.5
q0 -53 18.5 -127t36 -136t27.5 -128.5t-9 -128.5t-73 -111zM983 809q-25 55 -51.5 103.5t-62.5 99t-74 89t-86 70t-99.5 46.5t-113 13.5t-127.5 -24.5q-48 -30 -78.5 -85t-36.5 -113q-65 -187 1.5 -389t213.5 -349q129 -23 261.5 22.5t236.5 135.5q41 36 52 87t1 94.5
t-23.5 103t-13.5 96.5zM766 1454q-45 30 -70 69.5t-34.5 72t-23 62.5t-49.5 51.5t-100 29.5q-16 7 -61.5 -33.5t-91.5 -91t-90 -86t-58 -21.5q5 9 13.5 25.5t35.5 62t54.5 87t66 90.5t73.5 83t74.5 53.5t72.5 12.5q27 -6 54.5 -28t46.5 -49.5t34 -54.5t23 -45l7 -18
q9 -20 20 -55.5t20.5 -79.5t6 -83t-23.5 -54z" />
    <glyph glyph-name="otilde" unicode="&#xf5;" 
d="M1122 311q-83 -77 -174.5 -130.5t-190.5 -82t-203.5 -17.5t-201.5 64q-91 70 -153.5 162t-94 186.5t-43 209t-8 216t18.5 222.5q4 33 19.5 64t42.5 61t48 49.5t56.5 49t48.5 40.5q42 -2 106.5 11t109.5 22.5t96 -6.5t85 -68q143 -55 255 -166.5t183 -255.5
q0 -53 18.5 -127t36 -136t27.5 -128.5t-9 -128.5t-73 -111zM983 809q-25 55 -51.5 103.5t-62.5 99t-74 89t-86 70t-99.5 46.5t-113 13.5t-127.5 -24.5q-48 -30 -78.5 -85t-36.5 -113q-65 -187 1.5 -389t213.5 -349q129 -23 261.5 22.5t236.5 135.5q41 36 52 87t1 94.5
t-23.5 103t-13.5 96.5zM848 1595q-20 -73 -52.5 -107.5t-68.5 -35.5t-85 16t-95 42t-106.5 49t-110.5 30q-17 8 -55 -11t-75 -44.5t-73.5 -40t-50.5 -0.5q6 10 17 27.5t45.5 60t69 73t83.5 51.5t94 11q44 -9 108.5 -36t106.5 -50l43 -22q42 -37 175 -8q39 9 40 6t-10 -11z
" />
    <glyph glyph-name="odieresis" unicode="&#xf6;" 
d="M1122 311q-83 -77 -174.5 -130.5t-190.5 -82t-203.5 -17.5t-201.5 64q-91 70 -153.5 162t-94 186.5t-43 209t-8 216t18.5 222.5q4 33 19.5 64t42.5 61t48 49.5t56.5 49t48.5 40.5q42 -2 106.5 11t109.5 22.5t96 -6.5t85 -68q143 -55 255 -166.5t183 -255.5
q0 -53 18.5 -127t36 -136t27.5 -128.5t-9 -128.5t-73 -111zM983 809q-25 55 -51.5 103.5t-62.5 99t-74 89t-86 70t-99.5 46.5t-113 13.5t-127.5 -24.5q-48 -30 -78.5 -85t-36.5 -113q-65 -187 1.5 -389t213.5 -349q129 -23 261.5 22.5t236.5 135.5q41 36 52 87t1 94.5
t-23.5 103t-13.5 96.5zM348 1655q2 -22 -5 -38.5t-16 -25.5t-29.5 -16.5t-33 -10.5t-39.5 -8q-17 -1 -30.5 4t-21.5 12.5t-15 22t-10 23.5t-7.5 26.5t-5.5 22.5q-9 91 54 95q51 4 110 -43q38 -32 49 -64zM696 1550q-21 -16 -41 -18.5t-39.5 10t-32.5 25t-34 35.5
q-12 16 -15 32t5 31.5t15 25.5t21.5 25.5t18.5 20.5q74 59 112 2q30 -45 19 -118q-8 -47 -29 -71z" />
    <glyph glyph-name="ugrave" unicode="&#xf9;" horiz-adv-x="1644" 
d="M1155 760q-14 -227 -94 -456.5t-213 -409.5q-51 3 -101.5 18.5t-92 35.5t-88 54t-79.5 63t-77.5 74.5t-71.5 76t-71.5 81t-67.5 76.5q-96 271 -147.5 566.5t-51.5 578.5q26 48 63.5 60.5t70 -5.5t57 -55t26.5 -80q3 -66 5 -177.5t4.5 -189.5t10 -183t25.5 -187.5
t47.5 -171.5t79 -167t117.5 -143q28 2 71.5 -16.5t81.5 -37t76.5 -27.5t68 16.5t44.5 91.5q223 485 172 1057q5 5 13 14t14 15t14.5 13.5t15.5 13t16.5 10.5t18.5 7t20.5 1.5t22.5 -3.5q6 -41 22 -117t25.5 -131.5t14 -123.5t-10.5 -129.5t-51 -112.5zM383 2056
q57 -17 91.5 -52.5t66 -90.5t53.5 -80q48 -84 108 -131q3 -28 -17 -50t-52 -28q-54 47 -101.5 112t-98.5 146.5t-83 124.5q-5 18 5 34t28 15z" />
    <glyph glyph-name="uacute" unicode="&#xfa;" horiz-adv-x="1644" 
d="M1155 760q-14 -227 -94 -456.5t-213 -409.5q-51 3 -101.5 18.5t-92 35.5t-88 54t-79.5 63t-77.5 74.5t-71.5 76t-71.5 81t-67.5 76.5q-96 271 -147.5 566.5t-51.5 578.5q26 48 63.5 60.5t70 -5.5t57 -55t26.5 -80q3 -66 5 -177.5t4.5 -189.5t10 -183t25.5 -187.5
t47.5 -171.5t79 -167t117.5 -143q28 2 71.5 -16.5t81.5 -37t76.5 -27.5t68 16.5t44.5 91.5q223 485 172 1057q5 5 13 14t14 15t14.5 13.5t15.5 13t16.5 10.5t18.5 7t20.5 1.5t22.5 -3.5q6 -41 22 -117t25.5 -131.5t14 -123.5t-10.5 -129.5t-51 -112.5zM862 2068
q7 -46 -3 -87t-26.5 -67.5t-41.5 -65t-37 -66.5q-54 -80 -70 -156q-27 -14 -53.5 -5.5t-46.5 34.5q18 69 55.5 140t89.5 153t76 129q12 13 31.5 11t25.5 -20z" />
    <glyph glyph-name="ucircumflex" unicode="&#xfb;" horiz-adv-x="1644" 
d="M1155 760q-14 -227 -94 -456.5t-213 -409.5q-51 3 -101.5 18.5t-92 35.5t-88 54t-79.5 63t-77.5 74.5t-71.5 76t-71.5 81t-67.5 76.5q-96 271 -147.5 566.5t-51.5 578.5q26 48 63.5 60.5t70 -5.5t57 -55t26.5 -80q3 -66 5 -177.5t4.5 -189.5t10 -183t25.5 -187.5
t47.5 -171.5t79 -167t117.5 -143q28 2 71.5 -16.5t81.5 -37t76.5 -27.5t68 16.5t44.5 91.5q223 485 172 1057q5 5 13 14t14 15t14.5 13.5t15.5 13t16.5 10.5t18.5 7t20.5 1.5t22.5 -3.5q6 -41 22 -117t25.5 -131.5t14 -123.5t-10.5 -129.5t-51 -112.5zM885 1554
q-45 30 -70 69.5t-34.5 72t-23 62.5t-49.5 51.5t-100 29.5q-16 7 -61.5 -33.5t-91.5 -91t-90 -85.5t-58 -21q5 9 13.5 25t35.5 62t54 87t65.5 90.5t73.5 83t74.5 53t72.5 12.5q27 -6 54.5 -28t46.5 -49.5t34.5 -54t22.5 -44.5l8 -18q9 -20 20 -55.5t20.5 -80t6 -83.5
t-23.5 -54z" />
    <glyph glyph-name="udieresis" unicode="&#xfc;" horiz-adv-x="1644" 
d="M1155 760q-14 -227 -94 -456.5t-213 -409.5q-51 3 -101.5 18.5t-92 35.5t-88 54t-79.5 63t-77.5 74.5t-71.5 76t-71.5 81t-67.5 76.5q-96 271 -147.5 566.5t-51.5 578.5q26 48 63.5 60.5t70 -5.5t57 -55t26.5 -80q3 -66 5 -177.5t4.5 -189.5t10 -183t25.5 -187.5
t47.5 -171.5t79 -167t117.5 -143q28 2 71.5 -16.5t81.5 -37t76.5 -27.5t68 16.5t44.5 91.5q223 485 172 1057q5 5 13 14t14 15t14.5 13.5t15.5 13t16.5 10.5t18.5 7t20.5 1.5t22.5 -3.5q6 -41 22 -117t25.5 -131.5t14 -123.5t-10.5 -129.5t-51 -112.5zM553 1696
q2 -22 -5 -38.5t-16 -25.5t-29.5 -16.5t-33 -10.5t-39.5 -8q-17 -1 -30.5 4t-21.5 12.5t-15 22t-10 23.5t-7.5 26.5t-5.5 22.5q-9 91 54 95q51 4 110 -43q39 -31 49 -64zM901 1591q-21 -16 -41 -18.5t-39.5 9.5t-33 24.5t-33.5 35.5q-12 16 -15 32t5 32t14.5 25.5t21.5 25.5
t19 21q74 59 112 2q30 -45 19 -118q-8 -47 -29 -71z" />
    <glyph glyph-name="endash" unicode="&#x2013;" horiz-adv-x="1574" 
d="M1253 698q-449 -49 -944 0q-24 8 -73.5 17t-88 21t-65.5 34v80l1098 -16q8 -12 28 -28t36 -28t28 -25.5t8 -27.5t-27 -27z" />
    <glyph glyph-name="emdash" unicode="&#x2014;" horiz-adv-x="2170" 
d="M1821 680q-343 -29 -652 -29q-331 -3 -725 29q-36 11 -107.5 22.5t-128.5 27t-97 42.5v100l387 -28l1216 8q7 -9 19.5 -19t23 -17.5t28.5 -18.5q20 -13 29.5 -19.5t24 -18t18 -20t4.5 -19t-9.5 -20.5t-30.5 -20z" />
    <glyph glyph-name="quoteleft" unicode="&#x2018;" horiz-adv-x="741" 
d="M180 1864q-10 -62 3.5 -118.5t36.5 -92.5t56 -88t50 -92q74 -114 94 -211q35 -20 71 -8.5t62 46.5q-24 93 -75 191t-119 208.5t-101 176.5q-17 18 -44 15.5t-34 -27.5z" />
    <glyph glyph-name="quoteright" unicode="&#x2019;" horiz-adv-x="700" 
d="M516 1864q10 -62 -3.5 -118.5t-36 -92.5t-55.5 -88t-50 -92q-75 -116 -95 -211q-35 -20 -71 -8.5t-62 46.5q24 93 75 191t119 208.5t101 176.5q17 18 44 15.5t34 -27.5z" />
    <glyph glyph-name="quotedblleft" unicode="&#x201c;" horiz-adv-x="993" 
d="M580 1786q43 -43 53.5 -89t-7.5 -90.5t-43 -83.5t-56 -86.5t-44 -80.5q-19 -29 -52.5 -93.5t-65 -108.5t-70.5 -67q-32 3 -49.5 26.5t-17 53.5t15.5 56q38 63 100.5 180.5t119 213t116.5 169.5zM360 1864q10 -62 -3.5 -118.5t-36 -92.5t-55.5 -88t-50 -92
q-74 -114 -94 -211q-35 -20 -71 -8.5t-62 46.5q24 93 75 191t119 208.5t101 176.5q17 18 43.5 15.5t33.5 -27.5z" />
    <glyph glyph-name="quotedblright" unicode="&#x201d;" horiz-adv-x="1271" 
d="M776 1511q-4 -9 -11 -15t-12.5 -9t-16 -4.5t-16 -2t-18.5 0t-18 0.5q-29 63 -83.5 137.5t-98.5 127.5t-81.5 126t-43.5 145q47 -5 81.5 -28t57 -57t40.5 -70t43 -75.5t54 -64.5q62 -54 92.5 -100.5t30.5 -110.5zM377 1186q-8 -11 -21.5 -13t-26 1t-26.5 0
q-59 75 -105.5 174.5t-93 215.5t-86.5 189q20 55 42 71.5t47 -10t39 -48.5t39 -70q2 -3 3 -5t2.5 -5.5t2.5 -5.5t3 -5t3 -5t2.5 -4.5t2.5 -4.5t2.5 -4t2.5 -4l2 -4q-5 -11 -2.5 -26.5t4 -24t9 -23t12 -22t13 -21t13.5 -21.5q23 -2 35.5 -20.5t16 -41t15 -48t31.5 -37.5z" />
    <glyph glyph-name="bullet" unicode="&#x2022;" horiz-adv-x="1179" 
d="M612 598q-20 -10 -70 -36.5t-76 -39t-72.5 -29.5t-80.5 -21t-78 1.5t-85 24.5q-34 23 -52.5 56.5t-21 76t0.5 76t11 83t10 70.5q40 72 116.5 104.5t152 23t138 -56.5t77.5 -120q22 -27 27.5 -66.5t1 -73t1.5 -73.5z" />
    <glyph glyph-name="ellipsis" unicode="&#x2026;" horiz-adv-x="1798" 
d="M342 143q3 -39 -8 -65t-38.5 -41t-48.5 -21t-63 -14q-22 -2 -39 5.5t-27.5 18t-19.5 31t-12.5 33.5t-9.5 38t-8 32q-12 123 62 135q59 10 132 -46q64 -50 80 -106zM874 143q2 -32 -6.5 -55.5t-20.5 -36.5t-37 -23.5t-42.5 -15t-50.5 -10.5q-22 -2 -39 5.5t-27.5 18
t-20 31.5t-13 33.5t-9.5 37.5t-8 32q-12 123 62 135q59 10 132 -46q65 -50 80 -106zM1427 143q2 -32 -6.5 -55.5t-20.5 -36.5t-37 -23.5t-42.5 -15t-50.5 -10.5q-22 -2 -39 5.5t-27.5 18t-20 31.5t-13 33.5t-9.5 37.5t-8 32q-12 123 62 135q59 10 132 -46q64 -50 80 -106z
" />
    <glyph glyph-name="trademark" unicode="&#x2122;" horiz-adv-x="1406" 
d="M489 1448q-11 -15 -25 -21t-30 5q-37 26 -93.5 43t-102.5 25t-96 30.5t-81 60.5q14 16 36.5 17t42.5 -6t48 -17t45 -12l244 -66q7 -12 12 -59zM209 920q-4 -1 -13 -9.5t-14 -10t-14 6.5l-25 25q10 54 9 123.5t-7 128t-1.5 129.5t24.5 129q4 -3 15.5 -7.5t18 -10.5
t7.5 -17v-487zM1167 1067q-39 -7 -65 59q-7 32 -17.5 96.5t-18 104t-25.5 91t-44 91.5q-19 -4 -28.5 -20t-16 -39.5t-14.5 -34.5q-6 -46 -37 -129t-37 -129q-5 -17 -24 -17.5t-27 7.5q-19 28 -42.5 80t-47.5 92.5t-57 64.5q-19 -244 -74 -411q-28 -22 -66 12
q7 47 28.5 137.5t32 163.5t5.5 141l20 89l47 -7q8 -14 60.5 -108t87.5 -144q37 67 89 201.5t65 163.5q25 5 40.5 -6.5t21.5 -29t16.5 -36t25.5 -24.5q8 -27 46 -134t51.5 -178.5t4.5 -146.5z" />
  </font>
</defs>
</svg>
